<svg xmlns="http://www.w3.org/2000/svg" viewBox="0 0 512 566.38837"><defs><style>.cls-1{fill:#191e26;}.cls-1,.cls-2,.cls-6{fill-rule:evenodd;}.cls-2{fill:#181d26;}.cls-3{fill:#323e4f;}.cls-4{fill:#212935;}.cls-5{fill:#9b5f00;}.cls-6{fill:none;}.cls-7{fill:#ffa700;}.cls-8{fill:#ffd55a;}</style></defs><title>elemento_storage</title><g id="Sfondo"><path class="cls-1" d="M27,170l252.73734,39.51247L539,170,283,77Z" transform="translate(-27 -0.31982)"/><path class="cls-2" d="M27,397l252.73734-41.939L539,397,283,490Z" transform="translate(-27 -0.31982)"/><path class="cls-3" d="M283,.31982,539,128.49426v41.69318L283,77Z" transform="translate(-27 -0.31982)"/><path class="cls-3" d="M283,490l256-93v41.435L283,566.60931Z" transform="translate(-27 -0.31982)"/><path class="cls-4" d="M283,.4187,27,128.59314V170L283,77.01465Z" transform="translate(-27 -0.31982)"/><path class="cls-4" d="M283,490,27,397v41.53387L283,566.70819Z" transform="translate(-27 -0.31982)"/><path class="cls-3" d="M283,77" transform="translate(-27 -0.31982)"/></g><g id="Sx"><polygon class="cls-5" points="18 357.68 256 411.68 494 357.68 256 327.68 18 357.68"/><path class="cls-5" d="M45,310l238,18,238-18L283.46457,289Z" transform="translate(-27 -0.31982)"/><path class="cls-5" d="M45,255l238-17,238,17L283.46457,275Z" transform="translate(-27 -0.31982)"/><path class="cls-5" d="M45,209l238-56,238,56L283,239Z" transform="translate(-27 -0.31982)"/><path class="cls-5" d="M298,283" transform="translate(-27 -0.31982)"/></g><g id="Dx"><path class="cls-6" d="M22,389" transform="translate(-27 -0.31982)"/><path class="cls-7" d="M283,94,45,176.66876V209.639L283,153Z" transform="translate(-27 -0.31982)"/><path class="cls-7" d="M283,161,45,214.52814V255l238-17Z" transform="translate(-27 -0.31982)"/><polygon class="cls-7" points="256 244.122 18 261.836 18 302.453 256 320.167 256 244.122"/><path class="cls-7" d="M283,328,45,310v41.0451Q164,378.02254,283,405Z" transform="translate(-27 -0.31982)"/><path class="cls-7" d="M283,412,45,358v33.45807L283,474Z" transform="translate(-27 -0.31982)"/><path class="cls-8" d="M283,94l238,82.56989V209L283,153Z" transform="translate(-27 -0.31982)"/><path class="cls-8" d="M283,161l238,53.42926V255L283,238Z" transform="translate(-27 -0.31982)"/><polygon class="cls-8" points="256 244.123 494 261.836 494 302.453 256 320.167 256 244.123"/><path class="cls-8" d="M283,328l238-18v40.94623Q402,377.97309,283,405Z" transform="translate(-27 -0.31982)"/><path class="cls-8" d="M283,412l238-54v33.35919L283,474Z" transform="translate(-27 -0.31982)"/><path class="cls-8" d="M527,357" transform="translate(-27 -0.31982)"/><path class="cls-7" d="M43,310" transform="translate(-27 -0.31982)"/><path class="cls-7" d="M283,153" transform="translate(-27 -0.31982)"/><path class="cls-8" d="M907,102" transform="translate(-27 -0.31982)"/></g></svg>