<svg id="Livello_1" data-name="Livello 1" xmlns="http://www.w3.org/2000/svg" viewBox="0 0 507.99994 565.76685"><defs><style>.cls-1{fill:#10131a;}.cls-1,.cls-2{opacity:0.1;}.cls-2{fill:#fff;}.cls-3{fill:#4b0d9b;}.cls-4{fill:#7b15ff;}</style></defs><title>ComputingLogoTransparent</title><polygon class="cls-1" points="253.535 0.178 0 140.678 0 421.678 253.535 562.178 253.535 0.178"/><polygon class="cls-2" points="253.536 0.178 508 140.678 508 421.678 253.536 562.178 253.536 0.178"/><polygon class="cls-3" points="253.535 0 0 121.309 0 154.775 253.535 57.816 253.535 0"/><polygon class="cls-3" points="253.535 510.016 0 413.057 0 444.457 253.535 565.767 253.535 510.016"/><rect class="cls-3" y="129.4763" width="25.5354" height="301.94256"/><polygon class="cls-4" points="253.536 0 508 121.309 508 154.775 253.536 57.816 253.536 0"/><polygon class="cls-4" points="253.536 510.016 508 413.057 508 444.457 253.536 565.767 253.536 510.016"/></svg>