<svg xmlns="http://www.w3.org/2000/svg" viewBox="0 0 468.86784 678.41885">
  <defs>
    <style>
      .cls-1 {
        fill: #D35FAA;
      }

      .cls-2 {
        fill: #a6a5a5;
      }

      .cls-3 {
        fill: #13151c;
      }

      .cls-3, .cls-4 {
        opacity: 0.1;
      }

      .cls-4 {
        fill: #fff;
      }

      .cls-5 {
        fill: #9E005D;
      }
    </style>
  </defs>
  <title>MarkHypervisor</title>
  <g id="Livello_1" data-name="Livello 1">
    <g>
      <path class="cls-1" d="M110.09424,750.39844a1.38818,1.38818,0,0,1,1.0918.40918,1.68651,1.68651,0,0,1,0,2.09375,1.38818,1.38818,0,0,1-1.0918.40918H69.32617a2.31988,2.31988,0,0,1-1.77441-.72754,2.44206,2.44206,0,0,1-.68262-1.72949V697.80078a2.28812,2.28812,0,0,1,.68262-1.68359,2.39935,2.39935,0,0,1,1.77441-.68262h40.85889a1.27391,1.27391,0,0,1,1.001.40918,1.43553,1.43553,0,0,1,0,1.91113,1.38484,1.38484,0,0,1-1.0918.40918H69.87207v25.11621h38.40186a1.3697,1.3697,0,1,1,0,2.73047H69.87207v24.3877Z" transform="translate(-63.20608 -110.75401)"/>
      <path class="cls-1" d="M124.0166,751.582V697.16309a1.71824,1.71824,0,0,1,.45508-1.27344,1.53781,1.53781,0,0,1,2.18408,0,1.72411,1.72411,0,0,1,.45508,1.27344v53.32617h38.21973a1.53715,1.53715,0,0,1,1.13769.41015,1.30772,1.30772,0,0,1,.40967.95508,1.4636,1.4636,0,0,1-.40967,1.001,1.44859,1.44859,0,0,1-1.13769.45508H125.65479Q124.01636,753.31055,124.0166,751.582Z" transform="translate(-63.20608 -110.75401)"/>
      <path class="cls-1" d="M218.47363,750.39844a1.38815,1.38815,0,0,1,1.0918.40918,1.68648,1.68648,0,0,1,0,2.09375,1.38815,1.38815,0,0,1-1.0918.40918H177.70557a2.3199,2.3199,0,0,1-1.77442-.72754,2.44205,2.44205,0,0,1-.68261-1.72949V697.80078a2.28811,2.28811,0,0,1,.68261-1.68359,2.39937,2.39937,0,0,1,1.77442-.68262h40.85888a1.27389,1.27389,0,0,1,1.001.40918,1.4355,1.4355,0,0,1,0,1.91113,1.38481,1.38481,0,0,1-1.0918.40918H178.25146v25.11621h38.40186a1.3697,1.3697,0,1,1,0,2.73047H178.25146v24.3877Z" transform="translate(-63.20608 -110.75401)"/>
      <path class="cls-1" d="M287.17725,695.43457a1.41812,1.41812,0,0,1,1.04589.40918,1.66776,1.66776,0,0,1,.41016,1.22852v54.60058a1.59931,1.59931,0,0,1-.45508,1.18262,1.48718,1.48718,0,0,1-1.09179.45508,1.48827,1.48827,0,0,1-1.54688-1.6377V701.98633L262.061,738.8418a1.69367,1.69367,0,0,1-1.54688,1.001,1.75721,1.75721,0,0,1-1.6377-1.001L235.398,702.169v49.5039a1.48955,1.48955,0,0,1-1.54688,1.6377,1.48251,1.48251,0,0,1-1.09179-.45508,1.59173,1.59173,0,0,1-.45508-1.18262V697.07227a1.56544,1.56544,0,0,1,.45508-1.22852,1.46525,1.46525,0,0,1,1.001-.40918,1.64949,1.64949,0,0,1,1.45606.91016l25.29785,39.40234,25.11621-39.40234A1.85546,1.85546,0,0,1,287.17725,695.43457Z" transform="translate(-63.20608 -110.75401)"/>
      <path class="cls-1" d="M347.418,750.39844a1.38967,1.38967,0,0,1,1.09277.40918,1.69,1.69,0,0,1,0,2.09375,1.38967,1.38967,0,0,1-1.09277.40918H306.65039a2.31988,2.31988,0,0,1-1.77441-.72754,2.44206,2.44206,0,0,1-.68262-1.72949V697.80078a2.28812,2.28812,0,0,1,.68262-1.68359,2.39935,2.39935,0,0,1,1.77441-.68262h40.85938a1.27527,1.27527,0,0,1,1.001.40918,1.43839,1.43839,0,0,1,0,1.91113,1.38633,1.38633,0,0,1-1.09277.40918H307.19629v25.11621h38.40234a1.36966,1.36966,0,1,1,0,2.73047H307.19629v24.3877Z" transform="translate(-63.20608 -110.75401)"/>
      <path class="cls-1" d="M404.293,695.88965a1.53722,1.53722,0,0,1,2.18359,0,1.72021,1.72021,0,0,1,.45508,1.27344v54.32714a1.83568,1.83568,0,0,1-.40918,1.27442,1.25,1.25,0,0,1-.95508.45508,2.34053,2.34053,0,0,1-1.82031-1.001l-39.585-51.2334v50.6875a1.69566,1.69566,0,0,1-.41016,1.18262,1.33987,1.33987,0,0,1-1.0459.45508,1.48955,1.48955,0,0,1-1.54687-1.6377V697.3457a2.18058,2.18058,0,0,1,.40918-1.41113,1.29674,1.29674,0,0,1,1.04687-.5,2.109,2.109,0,0,1,1.72852,1.001l39.49414,51.2334V697.16309A1.71629,1.71629,0,0,1,404.293,695.88965Z" transform="translate(-63.20608 -110.75401)"/>
      <path class="cls-1" d="M465.89941,695.43457a1.67,1.67,0,0,1,1.22852.40918,1.31,1.31,0,0,1,.41016.95605,1.25172,1.25172,0,0,1-.45508.95508,1.70262,1.70262,0,0,1-1.1836.40918H442.33105l.09083,53.418a1.63574,1.63574,0,0,1-1.6377,1.72852,1.48312,1.48312,0,0,1-1.09277-.45508,1.7187,1.7187,0,0,1-.45508-1.27344v-53.418H415.75879a1.6951,1.6951,0,0,1-1.18262-.40918,1.2485,1.2485,0,0,1-.45508-.95508,1.30907,1.30907,0,0,1,.40918-.95605,1.67158,1.67158,0,0,1,1.22852-.40918Z" transform="translate(-63.20608 -110.75401)"/>
      <path class="cls-1" d="M483.28027,750.1709a29.15589,29.15589,0,0,1-10.64746-11.14746,30.48682,30.48682,0,0,1-3.73047-15.65235q.27246-9.73534,4.54981-16.19726a26.60781,26.60781,0,0,1,10.69238-9.55567,29.97132,29.97132,0,0,1,13.14942-3.09375,31.00726,31.00726,0,0,1,13.60449,3.27637,28.48877,28.48877,0,0,1,11.33008,10.05567q4.54833,6.7793,4.5498,16.51562a29.72648,29.72648,0,0,1-3.959,15.19727,29.26573,29.26573,0,0,1-10.60059,10.73828,28.28476,28.28476,0,0,1-28.93848-.13672Zm-7.73535-12.19434a26.64385,26.64385,0,0,0,9.50977,9.82813,24.6968,24.6968,0,0,0,25.66211,0,26.65151,26.65151,0,0,0,9.50976-9.82813,27.19908,27.19908,0,0,0,3.54883-13.69531q0-9.00879-4.09473-15.06055a25.06981,25.06981,0,0,0-10.23828-8.918,28.55392,28.55392,0,0,0-12.14843-2.86621,26.8037,26.8037,0,0,0-12.05762,2.86621,23.27036,23.27036,0,0,0-9.50879,8.918q-3.73242,6.05274-3.73145,15.06055A27.19918,27.19918,0,0,0,475.54492,737.97656Z" transform="translate(-63.20608 -110.75401)"/>
    </g>
    <g id="Livello_4" data-name="Livello 4">
      <g>
        <g>
          <path class="cls-2" d="M152.19824,773.333a.37692.37692,0,0,1,.27637.10742.44071.44071,0,0,1,.1084.32422V788.165a.42481.42481,0,0,1-.12012.31152.39556.39556,0,0,1-.28809.12012.39362.39362,0,0,1-.4082-.43164V775.06055l-6.19238,9.71972a.4451.4451,0,0,1-.40723.26465.46368.46368,0,0,1-.43261-.26465L138.543,775.1084V788.165a.39362.39362,0,0,1-.4082.43164.39241.39241,0,0,1-.28809-.12012.421.421,0,0,1-.12012-.31152V773.76465a.41518.41518,0,0,1,.12012-.32422.38884.38884,0,0,1,.26367-.10742.4339.4339,0,0,1,.38379.23926l6.67285,10.39257,6.624-10.39257A.48792.48792,0,0,1,152.19824,773.333Z" transform="translate(-63.20608 -110.75401)"/>
          <path class="cls-2" d="M165.38867,787.76855a7.68357,7.68357,0,0,1-2.80762-2.93945,8.63823,8.63823,0,0,1,.21583-8.40039,7.02716,7.02716,0,0,1,2.82031-2.52051,7.9115,7.9115,0,0,1,3.46777-.81543,8.17863,8.17863,0,0,1,3.58789.86426,7.51837,7.51837,0,0,1,2.98828,2.65137,7.6408,7.6408,0,0,1,1.19922,4.35644,7.84034,7.84034,0,0,1-1.04394,4.00782,7.70938,7.70938,0,0,1-2.7959,2.832,7.45773,7.45773,0,0,1-7.63184-.03614Zm-2.04-3.21582a7.03018,7.03018,0,0,0,2.50782,2.5918,6.5133,6.5133,0,0,0,6.76855,0,7.03015,7.03015,0,0,0,2.50781-2.5918,7.17149,7.17149,0,0,0,.93555-3.6123,6.93118,6.93118,0,0,0-1.0791-3.97168,6.62542,6.62542,0,0,0-2.7002-2.35254,7.53452,7.53452,0,0,0-3.2041-.75586,7.07306,7.07306,0,0,0-3.18066.75586,6.15149,6.15149,0,0,0-2.50782,2.35254,7.439,7.439,0,0,0-.98339,3.97168A7.17158,7.17158,0,0,0,163.34863,784.55273Z" transform="translate(-63.20608 -110.75401)"/>
          <path class="cls-2" d="M186.07715,788.59668a.64368.64368,0,0,1-.45606-.17969.58392.58392,0,0,1-.1914-.44433v-14.04a.55826.55826,0,0,1,.1914-.41992.64368.64368,0,0,1,.45606-.17969h5.56836a6.5857,6.5857,0,0,1,6.25195,3.91211,9.00966,9.00966,0,0,1,0,7.43945,6.5857,6.5857,0,0,1-6.25195,3.91211Zm5.56836-.74414a5.8815,5.8815,0,0,0,3.4082-.97168,6.11169,6.11169,0,0,0,2.13574-2.55664,8.25689,8.25689,0,0,0,0-6.74317,6.11169,6.11169,0,0,0-2.13574-2.55664,5.8815,5.8815,0,0,0-3.4082-.97168h-5.42383v13.79981Z" transform="translate(-63.20608 -110.75401)"/>
          <path class="cls-2" d="M220.61914,773.74023a.38422.38422,0,0,1,.12012-.2998.41826.41826,0,0,1,.28808-.10742.38884.38884,0,0,1,.26368.10742.35532.35532,0,0,1,.12011.27637v8.23144a6.933,6.933,0,0,1-.97168,3.74414,6.28085,6.28085,0,0,1-2.55566,2.35254,7.62674,7.62674,0,0,1-6.76856,0,6.35363,6.35363,0,0,1-2.56738-2.35254,6.87,6.87,0,0,1-.98437-3.74414V773.7168a.35532.35532,0,0,1,.12011-.27637.38389.38389,0,0,1,.64746.2998v8.208a6.076,6.076,0,0,0,.86426,3.3125,5.5495,5.5495,0,0,0,2.28028,2.06348,6.811,6.811,0,0,0,6,0,5.55552,5.55552,0,0,0,2.28027-2.06348,6.08411,6.08411,0,0,0,.86328-3.3125Z" transform="translate(-63.20608 -110.75401)"/>
          <path class="cls-2" d="M231.25879,788.14062V773.78906a.45266.45266,0,0,1,.11914-.33594.40554.40554,0,0,1,.57617,0,.45312.45312,0,0,1,.12012.33594v14.06348H242.1543a.40312.40312,0,0,1,.2998.1084.3424.3424,0,0,1,.1084.25195.38546.38546,0,0,1-.1084.26367.38142.38142,0,0,1-.2998.12012H231.69043Q231.2583,788.59668,231.25879,788.14062Z" transform="translate(-63.20608 -110.75401)"/>
          <path class="cls-2" d="M258.03516,773.11621l7.65625,15.04883a.39922.39922,0,0,1,.04785.21582.35186.35186,0,0,1-.12012.27539.41629.41629,0,0,1-.28809.1084.37116.37116,0,0,1-.33593-.21582l-2.13574-4.248H252.53906l-2.13574,4.248a.34126.34126,0,0,1-.33594.21582.41458.41458,0,0,1-.28808-.1084.35186.35186,0,0,1-.12012-.27539.39053.39053,0,0,1,.04785-.21582l7.63184-15.04883a.38873.38873,0,0,1,.36035-.21582A.34127.34127,0,0,1,258.03516,773.11621Zm-5.13575,10.46484h9.5752l-4.77539-9.5039Z" transform="translate(-63.20608 -110.75401)"/>
          <path class="cls-2" d="M274.61621,788.18848a.38.38,0,0,1-.12012.2998.41456.41456,0,0,1-.28808.1084.38543.38543,0,0,1-.26367-.1084.35185.35185,0,0,1-.12012-.27539V773.74023a.38422.38422,0,0,1,.12012-.2998.41824.41824,0,0,1,.28808-.10742h6.04785a7.58927,7.58927,0,0,1,3.34766.67187,4.85614,4.85614,0,0,1,2.07617,1.79981,4.703,4.703,0,0,1,.69629,2.51953,4.236,4.236,0,0,1-1.332,3.24023,6.2164,6.2164,0,0,1-3.90039,1.44043l4.7998,4.89551a.43542.43542,0,0,1,.14453.3125.37005.37005,0,0,1-.10839.27539.34242.34242,0,0,1-.252.1084.41732.41732,0,0,1-.28808-.14356l-5.23145-5.47265h-5.61621Zm5.68848-5.90332a6.16291,6.16291,0,0,0,3.94726-1.08008,3.42146,3.42146,0,0,0,1.332-2.78418,4.00056,4.00056,0,0,0-.63574-2.19629,4.35893,4.35893,0,0,0-1.82422-1.57227,6.40709,6.40709,0,0,0-2.81933-.57519h-5.68848v8.208Z" transform="translate(-63.20608 -110.75401)"/>
        </g>
        <g>
          <path class="cls-2" d="M320.23145,780.55664v-6.02441a.79661.79661,0,0,1,.26367-.63575.92765.92765,0,0,1,.624-.22753.88249.88249,0,0,1,.61231.22753.81475.81475,0,0,1,.252.63575v13.48828a.861.861,0,0,1-.26367.67187.89745.89745,0,0,1-.624.24024.85459.85459,0,0,1-.6123-.24024.88216.88216,0,0,1-.252-.67187v-5.95215h-8.832v5.97656a.8677.8677,0,0,1-.24023.66016.80795.80795,0,0,1-.5752.22754.94074.94074,0,0,1-.63671-.24024.81417.81417,0,0,1-.27539-.64746V774.53223a.81471.81471,0,0,1,.252-.63575.85.85,0,0,1,.58789-.22753.901.901,0,0,1,.624.23925.80652.80652,0,0,1,.26367.624v6.02441Z" transform="translate(-63.20608 -110.75401)"/>
          <path class="cls-2" d="M330.52441,774.96484a.865.865,0,0,1-.1914-.5039.69342.69342,0,0,1,.28808-.56446,1.01725,1.01725,0,0,1,.64746-.22753.86089.86089,0,0,1,.76856.40722l5.25586,7.17676,5.30371-7.17676a.83759.83759,0,0,1,.74414-.40722.91792.91792,0,0,1,.59961.21582.68253.68253,0,0,1,.26465.55175.86622.86622,0,0,1-.168.50391l-5.832,7.82422v5.28027a.81493.81493,0,0,1-.27637.64746.949.949,0,0,1-1.24805.0127.84537.84537,0,0,1-.25195-.66016v-5.28027Z" transform="translate(-63.20608 -110.75401)"/>
          <path class="cls-2" d="M354.31738,788.11621a.74882.74882,0,0,1-.252.60059.91.91,0,0,1-.61133.21582.94345.94345,0,0,1-.6123-.2041.71229.71229,0,0,1-.252-.5879V774.50879a.77869.77869,0,0,1,.26368-.60059.89925.89925,0,0,1,.624-.23925h5.208a6.69729,6.69729,0,0,1,3.36035.77929,5.19175,5.19175,0,0,1,2.05176,2.04,5.5751,5.5751,0,0,1,.68359,2.7002,5.26333,5.26333,0,0,1-.68359,2.67578,4.78,4.78,0,0,1-2.07618,1.88476,7.56535,7.56535,0,0,1-3.4082.69532h-4.2959Zm4.2959-5.23144a5.38644,5.38644,0,0,0,2.52051-.52832,3.45721,3.45721,0,0,0,1.47559-1.36817,3.631,3.631,0,0,0,.46777-1.7998,3.77982,3.77982,0,0,0-.52735-1.91993,4.01408,4.01408,0,0,0-1.51171-1.47558,4.60568,4.60568,0,0,0-2.32813-.56445h-4.39258v7.65625Z" transform="translate(-63.20608 -110.75401)"/>
          <path class="cls-2" d="M384.81055,787.34863a.7468.7468,0,0,1,.59961.252.87319.87319,0,0,1,.21582.58789.71758.71758,0,0,1-.21582.52832.81125.81125,0,0,1-.59961.21582h-10.1045a1.07219,1.07219,0,0,1-.792-.31153,1.01538,1.01538,0,0,1-.31152-.74414V774.7002a.97687.97687,0,0,1,.31152-.73145,1.09476,1.09476,0,0,1,.792-.2998H384.834a.70046.70046,0,0,1,.55274.21582.76629.76629,0,0,1,.1914.52832.82855.82855,0,0,1-.2041.55175.6985.6985,0,0,1-.56347.24024h-9.48047v5.39941h9.02441a.69033.69033,0,0,1,.54.22852.8161.8161,0,0,1,.2041.56347.78178.78178,0,0,1-.19238.51661.682.682,0,0,1-.55176.22753h-9.02441v5.208Z" transform="translate(-63.20608 -110.75401)"/>
          <path class="cls-2" d="M396.25586,788.09277a.7671.7671,0,0,1-.26465.61231.95527.95527,0,0,1-1.22363.01172.73363.73363,0,0,1-.26367-.60059V774.50879a.80532.80532,0,0,1,.24023-.61231.90118.90118,0,0,1,.64746-.22753h5.68848a7.75835,7.75835,0,0,1,3.41992.68359,4.81655,4.81655,0,0,1,2.84375,4.47656,4.57625,4.57625,0,0,1-1.05566,3.0957,5.21983,5.21983,0,0,1-3.2168,1.584l3.67285,3.96a.92122.92122,0,0,1,.31152.64746.75033.75033,0,0,1-.26367.57617.84781.84781,0,0,1-1.248-.07129l-4.63184-5.0166h-4.65625Zm4.84766-6a5.32008,5.32008,0,0,0,3.33593-.88769,2.7755,2.7755,0,0,0,1.12793-2.28028,3.37218,3.37218,0,0,0-1.22363-2.61621,4.80533,4.80533,0,0,0-3.24023-1.03222h-4.84766v6.8164Z" transform="translate(-63.20608 -110.75401)"/>
          <path class="cls-2" d="M414.39941,774.24414a.71663.71663,0,0,1,.28809-.58789,1.05307,1.05307,0,0,1,.67188-.22754.81751.81751,0,0,1,.792.50391l6.168,12.36035,6.02441-12.33594a.74049.74049,0,0,1,.31152-.39648.86024.86024,0,0,1,.45606-.13184.98674.98674,0,0,1,.64844.24024.77541.77541,0,0,1,.28711.624,1.30126,1.30126,0,0,1-.04786.28808l-6.91211,14.0879a.89381.89381,0,0,1-.33593.37207.86211.86211,0,0,1-1.27149-.44434l-7.00781-13.99219A1.01075,1.01075,0,0,1,414.39941,774.24414Z" transform="translate(-63.20608 -110.75401)"/>
          <path class="cls-2" d="M438.56738,773.89648a.92589.92589,0,0,1,.624-.22753.9624.9624,0,0,1,.64843.22753.82576.82576,0,0,1,.26368.66016v13.53613a.75571.75571,0,0,1-.27637.61231.97077.97077,0,0,1-.63574.22754.95641.95641,0,0,1-.624-.21582.76034.76034,0,0,1-.26367-.624V774.55664A.82575.82575,0,0,1,438.56738,773.89648Z" transform="translate(-63.20608 -110.75401)"/>
          <path class="cls-2" d="M448.87988,785.35645a.67562.67562,0,0,1,.29981-.57618,1.18393,1.18393,0,0,1,.708-.21582.94251.94251,0,0,1,.5166.14453.60153.60153,0,0,1,.27539.43164q.72071,2.30421,5.208,2.30372a9.36977,9.36977,0,0,0,3.6123-.66016,2.3072,2.3072,0,0,0,1.5957-2.26758,1.69787,1.69787,0,0,0-.68359-1.47558,4.08262,4.08262,0,0,0-1.67969-.67286q-.99756-.17871-2.79687-.32324a26.62926,26.62926,0,0,1-3.5752-.46875,5.01188,5.01188,0,0,1-2.32812-1.16308,3.21445,3.21445,0,0,1-.96-2.52051,3.43138,3.43138,0,0,1,.98339-2.4961,5.92545,5.92545,0,0,1,2.4961-1.48828,10.19275,10.19275,0,0,1,3.09668-.47949q5.49462,0,6.67187,3.21582a1.37756,1.37756,0,0,1,.04785.26367.62981.62981,0,0,1-.28808.54,1.09109,1.09109,0,0,1-.64844.2041.73487.73487,0,0,1-.74414-.43164,2.69065,2.69065,0,0,0-1.85938-1.6084,11.16733,11.16733,0,0,0-3.15624-.40722,9.079,9.079,0,0,0-2.06348.252,4.90009,4.90009,0,0,0-1.87207.85156,1.91409,1.91409,0,0,0-.792,1.6084,1.74083,1.74083,0,0,0,.67187,1.48731,4.0203,4.0203,0,0,0,1.7041.69629q1.03125.19189,2.80762.33593,2.35254.2168,3.63574.46778a4.71157,4.71157,0,0,1,2.23242,1.08008,3.1548,3.1548,0,0,1,.94825,2.50781,3.68962,3.68962,0,0,1-1.08008,2.76074,5.98664,5.98664,0,0,1-2.68848,1.4873,12.61576,12.61576,0,0,1-3.28808.43262,11.68885,11.68885,0,0,1-4.39161-.82812,4.05353,4.05353,0,0,1-2.59179-2.77246A.70533.70533,0,0,1,448.87988,785.35645Z" transform="translate(-63.20608 -110.75401)"/>
          <path class="cls-2" d="M474.665,788.18848a7.1514,7.1514,0,0,1-2.7959-2.832,8.70949,8.70949,0,0,1-1.03223-4.32032,7.18215,7.18215,0,0,1,4.1045-6.77929,8.09438,8.09438,0,0,1,3.47949-.82813,8.61573,8.61573,0,0,1,3.57617.82813,7.6149,7.6149,0,0,1,3.06055,2.54394,7.06013,7.06013,0,0,1,1.23535,4.23535,8.45449,8.45449,0,0,1-1.05567,4.27246,7.51009,7.51009,0,0,1-6.624,3.86426A7.96235,7.96235,0,0,1,474.665,788.18848Zm-1.248-3.69629a5.56429,5.56429,0,0,0,2.14844,2.25683,5.97829,5.97829,0,0,0,3.04785.792,5.82364,5.82364,0,0,0,2.97559-.78028,5.62721,5.62721,0,0,0,2.13672-2.23242,7.0408,7.0408,0,0,0,.792-3.41992,5.90083,5.90083,0,0,0-.94824-3.41992,5.69712,5.69712,0,0,0-2.33985-2.01563,6.60911,6.60911,0,0,0-2.76074-.63672,6.40557,6.40557,0,0,0-2.69922.61231,5.32732,5.32732,0,0,0-2.23242,1.98047,6.21606,6.21606,0,0,0-.89941,3.47949A7.09141,7.09141,0,0,0,473.417,784.49219Z" transform="translate(-63.20608 -110.75401)"/>
          <path class="cls-2" d="M497.28223,788.09277a.7671.7671,0,0,1-.26465.61231.95527.95527,0,0,1-1.22363.01172.73361.73361,0,0,1-.26368-.60059V774.50879a.80533.80533,0,0,1,.24024-.61231.90118.90118,0,0,1,.64746-.22753h5.68848a7.75838,7.75838,0,0,1,3.41992.68359,4.81655,4.81655,0,0,1,2.84375,4.47656,4.57621,4.57621,0,0,1-1.05567,3.0957,5.21978,5.21978,0,0,1-3.21679,1.584l3.67285,3.96a.92122.92122,0,0,1,.31152.64746.75033.75033,0,0,1-.26367.57617.84782.84782,0,0,1-1.248-.07129l-4.63183-5.0166h-4.65625Zm4.84765-6a5.32011,5.32011,0,0,0,3.33594-.88769,2.77552,2.77552,0,0,0,1.12793-2.28028,3.37221,3.37221,0,0,0-1.22363-2.61621,4.80535,4.80535,0,0,0-3.24024-1.03222h-4.84765v6.8164Z" transform="translate(-63.20608 -110.75401)"/>
        </g>
      </g>
    </g>
  </g>
  <g id="Livello_5" data-name="Livello 5">
    <polygon class="cls-3" points="0 111.949 0 129.824 0 142.832 0 381.185 0 389.142 0 410.163 233.973 522.112 233.973 518.8 233.973 470.663 233.973 53.355 233.973 0.165 233.973 0 0 111.949"/>
    <polygon class="cls-4" points="468.868 111.949 468.868 129.824 468.868 142.832 468.868 381.185 468.868 389.142 468.868 410.163 233.973 522.112 233.973 518.8 233.973 470.663 233.973 53.355 233.973 0.165 233.973 0 468.868 111.949"/>
    <g>
      <polygon class="cls-5" points="233.973 238.19 0 248.404 0 275.613 233.973 285.828 233.973 238.19"/>
      <polygon class="cls-5" points="35.252 95.082 0 112.05 0 410.127 35.252 427.03 35.252 95.082"/>
    </g>
    <g>
      <polygon class="cls-1" points="233.973 238.19 468.802 248.404 468.802 275.613 233.973 285.828 233.973 238.19"/>
      <polygon class="cls-1" points="433.55 95.082 468.802 112.05 468.802 410.127 433.55 427.03 433.55 95.082"/>
    </g>
  </g>
</svg>
