<svg xmlns="http://www.w3.org/2000/svg" viewBox="0 0 468.86782 678.41784">
  <defs>
    <style>
      .cls-1 {
        fill: #AA3939;
      }

      .cls-2 {
        fill: #a6a5a5;
      }

      .cls-3 {
        fill: #13151c;
      }

      .cls-3, .cls-4 {
        opacity: 0.1;
      }

      .cls-4 {
        fill: #fff;
      }

      .cls-5 {
        fill: #720404;
      }
    </style>
  </defs>
  <title>MarkNetworking</title>
  <g id="Livello_1" data-name="Livello 1">
    <g>
      <path class="cls-1" d="M110.09424,750.39844a1.38818,1.38818,0,0,1,1.0918.40918,1.68651,1.68651,0,0,1,0,2.09375,1.38818,1.38818,0,0,1-1.0918.40918H69.32617a2.31988,2.31988,0,0,1-1.77441-.72754,2.44206,2.44206,0,0,1-.68262-1.72949V697.80078a2.28812,2.28812,0,0,1,.68262-1.68359,2.39935,2.39935,0,0,1,1.77441-.68262h40.85889a1.27391,1.27391,0,0,1,1.001.40918,1.43553,1.43553,0,0,1,0,1.91113,1.38484,1.38484,0,0,1-1.0918.40918H69.87207v25.11621h38.40186a1.3697,1.3697,0,1,1,0,2.73047H69.87207v24.3877Z" transform="translate(-63.12449 -110.75403)"/>
      <path class="cls-1" d="M124.0166,751.582V697.16309a1.71824,1.71824,0,0,1,.45508-1.27344,1.53781,1.53781,0,0,1,2.18408,0,1.72411,1.72411,0,0,1,.45508,1.27344v53.32617h38.21973a1.53715,1.53715,0,0,1,1.13769.41015,1.30772,1.30772,0,0,1,.40967.95508,1.4636,1.4636,0,0,1-.40967,1.001,1.44859,1.44859,0,0,1-1.13769.45508H125.65479Q124.01636,753.31055,124.0166,751.582Z" transform="translate(-63.12449 -110.75403)"/>
      <path class="cls-1" d="M218.47363,750.39844a1.38815,1.38815,0,0,1,1.0918.40918,1.68648,1.68648,0,0,1,0,2.09375,1.38815,1.38815,0,0,1-1.0918.40918H177.70557a2.3199,2.3199,0,0,1-1.77442-.72754,2.44205,2.44205,0,0,1-.68261-1.72949V697.80078a2.28811,2.28811,0,0,1,.68261-1.68359,2.39937,2.39937,0,0,1,1.77442-.68262h40.85888a1.27389,1.27389,0,0,1,1.001.40918,1.4355,1.4355,0,0,1,0,1.91113,1.38481,1.38481,0,0,1-1.0918.40918H178.25146v25.11621h38.40186a1.3697,1.3697,0,1,1,0,2.73047H178.25146v24.3877Z" transform="translate(-63.12449 -110.75403)"/>
      <path class="cls-1" d="M287.17725,695.43457a1.41812,1.41812,0,0,1,1.04589.40918,1.66776,1.66776,0,0,1,.41016,1.22852v54.60058a1.59931,1.59931,0,0,1-.45508,1.18262,1.48718,1.48718,0,0,1-1.09179.45508,1.48827,1.48827,0,0,1-1.54688-1.6377V701.98633L262.061,738.8418a1.69367,1.69367,0,0,1-1.54688,1.001,1.75721,1.75721,0,0,1-1.6377-1.001L235.398,702.169v49.5039a1.48955,1.48955,0,0,1-1.54688,1.6377,1.48251,1.48251,0,0,1-1.09179-.45508,1.59173,1.59173,0,0,1-.45508-1.18262V697.07227a1.56544,1.56544,0,0,1,.45508-1.22852,1.46525,1.46525,0,0,1,1.001-.40918,1.64949,1.64949,0,0,1,1.45606.91016l25.29785,39.40234,25.11621-39.40234A1.85546,1.85546,0,0,1,287.17725,695.43457Z" transform="translate(-63.12449 -110.75403)"/>
      <path class="cls-1" d="M347.418,750.39844a1.38967,1.38967,0,0,1,1.09277.40918,1.69,1.69,0,0,1,0,2.09375,1.38967,1.38967,0,0,1-1.09277.40918H306.65039a2.31988,2.31988,0,0,1-1.77441-.72754,2.44206,2.44206,0,0,1-.68262-1.72949V697.80078a2.28812,2.28812,0,0,1,.68262-1.68359,2.39935,2.39935,0,0,1,1.77441-.68262h40.85938a1.27527,1.27527,0,0,1,1.001.40918,1.43839,1.43839,0,0,1,0,1.91113,1.38633,1.38633,0,0,1-1.09277.40918H307.19629v25.11621h38.40234a1.36966,1.36966,0,1,1,0,2.73047H307.19629v24.3877Z" transform="translate(-63.12449 -110.75403)"/>
      <path class="cls-1" d="M404.293,695.88965a1.53722,1.53722,0,0,1,2.18359,0,1.72021,1.72021,0,0,1,.45508,1.27344v54.32714a1.83568,1.83568,0,0,1-.40918,1.27442,1.25,1.25,0,0,1-.95508.45508,2.34053,2.34053,0,0,1-1.82031-1.001l-39.585-51.2334v50.6875a1.69566,1.69566,0,0,1-.41016,1.18262,1.33987,1.33987,0,0,1-1.0459.45508,1.48955,1.48955,0,0,1-1.54687-1.6377V697.3457a2.18058,2.18058,0,0,1,.40918-1.41113,1.29674,1.29674,0,0,1,1.04687-.5,2.109,2.109,0,0,1,1.72852,1.001l39.49414,51.2334V697.16309A1.71629,1.71629,0,0,1,404.293,695.88965Z" transform="translate(-63.12449 -110.75403)"/>
      <path class="cls-1" d="M465.89941,695.43457a1.67,1.67,0,0,1,1.22852.40918,1.31,1.31,0,0,1,.41016.95605,1.25172,1.25172,0,0,1-.45508.95508,1.70262,1.70262,0,0,1-1.1836.40918H442.33105l.09083,53.418a1.63574,1.63574,0,0,1-1.6377,1.72852,1.48312,1.48312,0,0,1-1.09277-.45508,1.7187,1.7187,0,0,1-.45508-1.27344v-53.418H415.75879a1.6951,1.6951,0,0,1-1.18262-.40918,1.2485,1.2485,0,0,1-.45508-.95508,1.30907,1.30907,0,0,1,.40918-.95605,1.67158,1.67158,0,0,1,1.22852-.40918Z" transform="translate(-63.12449 -110.75403)"/>
      <path class="cls-1" d="M483.28027,750.1709a29.15589,29.15589,0,0,1-10.64746-11.14746,30.48682,30.48682,0,0,1-3.73047-15.65235q.27246-9.73534,4.54981-16.19726a26.60781,26.60781,0,0,1,10.69238-9.55567,29.97132,29.97132,0,0,1,13.14942-3.09375,31.00726,31.00726,0,0,1,13.60449,3.27637,28.48877,28.48877,0,0,1,11.33008,10.05567q4.54833,6.7793,4.5498,16.51562a29.72648,29.72648,0,0,1-3.959,15.19727,29.26573,29.26573,0,0,1-10.60059,10.73828,28.28476,28.28476,0,0,1-28.93848-.13672Zm-7.73535-12.19434a26.64385,26.64385,0,0,0,9.50977,9.82813,24.6968,24.6968,0,0,0,25.66211,0,26.65151,26.65151,0,0,0,9.50976-9.82813,27.19908,27.19908,0,0,0,3.54883-13.69531q0-9.00879-4.09473-15.06055a25.06981,25.06981,0,0,0-10.23828-8.918,28.55392,28.55392,0,0,0-12.14843-2.86621,26.8037,26.8037,0,0,0-12.05762,2.86621,23.27036,23.27036,0,0,0-9.50879,8.918q-3.73242,6.05274-3.73145,15.06055A27.19918,27.19918,0,0,0,475.54492,737.97656Z" transform="translate(-63.12449 -110.75403)"/>
    </g>
    <g id="Livello_4" data-name="Livello 4">
      <g>
        <g>
          <path class="cls-2" d="M152.19824,773.333a.37692.37692,0,0,1,.27637.10742.44071.44071,0,0,1,.1084.32422V788.165a.42481.42481,0,0,1-.12012.31152.39556.39556,0,0,1-.28809.12012.39362.39362,0,0,1-.4082-.43164V775.06055l-6.19238,9.71972a.4451.4451,0,0,1-.40723.26465.46368.46368,0,0,1-.43261-.26465L138.543,775.1084V788.165a.39362.39362,0,0,1-.4082.43164.39241.39241,0,0,1-.28809-.12012.421.421,0,0,1-.12012-.31152V773.76465a.41518.41518,0,0,1,.12012-.32422.38884.38884,0,0,1,.26367-.10742.4339.4339,0,0,1,.38379.23926l6.67285,10.39257,6.624-10.39257A.48792.48792,0,0,1,152.19824,773.333Z" transform="translate(-63.12449 -110.75403)"/>
          <path class="cls-2" d="M165.38867,787.76855a7.68357,7.68357,0,0,1-2.80762-2.93945,8.63823,8.63823,0,0,1,.21583-8.40039,7.02716,7.02716,0,0,1,2.82031-2.52051,7.9115,7.9115,0,0,1,3.46777-.81543,8.17863,8.17863,0,0,1,3.58789.86426,7.51837,7.51837,0,0,1,2.98828,2.65137,7.6408,7.6408,0,0,1,1.19922,4.35644,7.84034,7.84034,0,0,1-1.04394,4.00782,7.70938,7.70938,0,0,1-2.7959,2.832,7.45773,7.45773,0,0,1-7.63184-.03614Zm-2.04-3.21582a7.03018,7.03018,0,0,0,2.50782,2.5918,6.5133,6.5133,0,0,0,6.76855,0,7.03015,7.03015,0,0,0,2.50781-2.5918,7.17149,7.17149,0,0,0,.93555-3.6123,6.93118,6.93118,0,0,0-1.0791-3.97168,6.62542,6.62542,0,0,0-2.7002-2.35254,7.53452,7.53452,0,0,0-3.2041-.75586,7.07306,7.07306,0,0,0-3.18066.75586,6.15149,6.15149,0,0,0-2.50782,2.35254,7.439,7.439,0,0,0-.98339,3.97168A7.17158,7.17158,0,0,0,163.34863,784.55273Z" transform="translate(-63.12449 -110.75403)"/>
          <path class="cls-2" d="M186.07715,788.59668a.64368.64368,0,0,1-.45606-.17969.58392.58392,0,0,1-.1914-.44433v-14.04a.55826.55826,0,0,1,.1914-.41992.64368.64368,0,0,1,.45606-.17969h5.56836a6.5857,6.5857,0,0,1,6.25195,3.91211,9.00966,9.00966,0,0,1,0,7.43945,6.5857,6.5857,0,0,1-6.25195,3.91211Zm5.56836-.74414a5.8815,5.8815,0,0,0,3.4082-.97168,6.11169,6.11169,0,0,0,2.13574-2.55664,8.25689,8.25689,0,0,0,0-6.74317,6.11169,6.11169,0,0,0-2.13574-2.55664,5.8815,5.8815,0,0,0-3.4082-.97168h-5.42383v13.79981Z" transform="translate(-63.12449 -110.75403)"/>
          <path class="cls-2" d="M220.61914,773.74023a.38422.38422,0,0,1,.12012-.2998.41826.41826,0,0,1,.28808-.10742.38884.38884,0,0,1,.26368.10742.35532.35532,0,0,1,.12011.27637v8.23144a6.933,6.933,0,0,1-.97168,3.74414,6.28085,6.28085,0,0,1-2.55566,2.35254,7.62674,7.62674,0,0,1-6.76856,0,6.35363,6.35363,0,0,1-2.56738-2.35254,6.87,6.87,0,0,1-.98437-3.74414V773.7168a.35532.35532,0,0,1,.12011-.27637.38389.38389,0,0,1,.64746.2998v8.208a6.076,6.076,0,0,0,.86426,3.3125,5.5495,5.5495,0,0,0,2.28028,2.06348,6.811,6.811,0,0,0,6,0,5.55552,5.55552,0,0,0,2.28027-2.06348,6.08411,6.08411,0,0,0,.86328-3.3125Z" transform="translate(-63.12449 -110.75403)"/>
          <path class="cls-2" d="M231.25879,788.14062V773.78906a.45266.45266,0,0,1,.11914-.33594.40554.40554,0,0,1,.57617,0,.45312.45312,0,0,1,.12012.33594v14.06348H242.1543a.40312.40312,0,0,1,.2998.1084.3424.3424,0,0,1,.1084.25195.38546.38546,0,0,1-.1084.26367.38142.38142,0,0,1-.2998.12012H231.69043Q231.2583,788.59668,231.25879,788.14062Z" transform="translate(-63.12449 -110.75403)"/>
          <path class="cls-2" d="M258.03516,773.11621l7.65625,15.04883a.39922.39922,0,0,1,.04785.21582.35186.35186,0,0,1-.12012.27539.41629.41629,0,0,1-.28809.1084.37116.37116,0,0,1-.33593-.21582l-2.13574-4.248H252.53906l-2.13574,4.248a.34126.34126,0,0,1-.33594.21582.41458.41458,0,0,1-.28808-.1084.35186.35186,0,0,1-.12012-.27539.39053.39053,0,0,1,.04785-.21582l7.63184-15.04883a.38873.38873,0,0,1,.36035-.21582A.34127.34127,0,0,1,258.03516,773.11621Zm-5.13575,10.46484h9.5752l-4.77539-9.5039Z" transform="translate(-63.12449 -110.75403)"/>
          <path class="cls-2" d="M274.61621,788.18848a.38.38,0,0,1-.12012.2998.41456.41456,0,0,1-.28808.1084.38543.38543,0,0,1-.26367-.1084.35185.35185,0,0,1-.12012-.27539V773.74023a.38422.38422,0,0,1,.12012-.2998.41824.41824,0,0,1,.28808-.10742h6.04785a7.58927,7.58927,0,0,1,3.34766.67187,4.85614,4.85614,0,0,1,2.07617,1.79981,4.703,4.703,0,0,1,.69629,2.51953,4.236,4.236,0,0,1-1.332,3.24023,6.2164,6.2164,0,0,1-3.90039,1.44043l4.7998,4.89551a.43542.43542,0,0,1,.14453.3125.37005.37005,0,0,1-.10839.27539.34242.34242,0,0,1-.252.1084.41732.41732,0,0,1-.28808-.14356l-5.23145-5.47265h-5.61621Zm5.68848-5.90332a6.16291,6.16291,0,0,0,3.94726-1.08008,3.42146,3.42146,0,0,0,1.332-2.78418,4.00056,4.00056,0,0,0-.63574-2.19629,4.35893,4.35893,0,0,0-1.82422-1.57227,6.40709,6.40709,0,0,0-2.81933-.57519h-5.68848v8.208Z" transform="translate(-63.12449 -110.75403)"/>
        </g>
        <g>
          <path class="cls-2" d="M320.81934,773.87207a1.0811,1.0811,0,0,1,.66015-.2041.99156.99156,0,0,1,.624.2041.67178.67178,0,0,1,.26367.56348v13.46386a.93939.93939,0,0,1-.32324.75586,1.16288,1.16288,0,0,1-.78028.27637,1.33227,1.33227,0,0,1-.60058-.14355,1.1389,1.1389,0,0,1-.45606-.40821l-8.97558-11.90429.19238,3.3125V788.044a.82629.82629,0,0,1-.26465.66015,1.03633,1.03633,0,0,1-1.2959,0,.82573.82573,0,0,1-.26367-.66015V774.72363a1.05436,1.05436,0,0,1,.27637-.78027.92765.92765,0,0,1,.68359-.27539,1.13737,1.13737,0,0,1,.55176.14355,1.17746,1.17746,0,0,1,.43262.40821l9.23925,12.14355-.23925-3.624v-8.30371A.66127.66127,0,0,1,320.81934,773.87207Z" transform="translate(-63.12449 -110.75403)"/>
          <path class="cls-2" d="M343.5332,787.34766a.74677.74677,0,0,1,.59961.25195.87323.87323,0,0,1,.21582.58789.71756.71756,0,0,1-.21582.52832.81119.81119,0,0,1-.59961.21582H333.42871a1.07222,1.07222,0,0,1-.792-.31152,1.01542,1.01542,0,0,1-.31152-.74414V774.69922a.97687.97687,0,0,1,.31152-.73145,1.09481,1.09481,0,0,1,.792-.2998h10.12793a.70049.70049,0,0,1,.55274.21582.76634.76634,0,0,1,.1914.52832.82863.82863,0,0,1-.2041.55176.69853.69853,0,0,1-.56348.24023h-9.48047v5.39942h9.02442a.69035.69035,0,0,1,.54.22851.81614.81614,0,0,1,.2041.56348.78176.78176,0,0,1-.19238.5166.682.682,0,0,1-.55176.22754h-9.02442v5.208Z" transform="translate(-63.12449 -110.75403)"/>
          <path class="cls-2" d="M365.99707,773.90723a.807.807,0,0,1,.22852.57617.83717.83717,0,0,1-.22852.60058.86725.86725,0,0,1-.66016.23926h-5.35156l.02344,12.72071a.79707.79707,0,0,1-.28809.64746.953.953,0,0,1-.624.24023.89463.89463,0,0,1-.59961-.22754.82573.82573,0,0,1-.26367-.66015V775.32324h-5.32813a.78607.78607,0,0,1-.6123-.252.85.85,0,0,1-.22754-.58789.7989.7989,0,0,1,.83984-.81543h12.43164A.87093.87093,0,0,1,365.99707,773.90723Z" transform="translate(-63.12449 -110.75403)"/>
          <path class="cls-2" d="M386.01758,775.54a.7882.7882,0,0,1,.792-.52832.95359.95359,0,0,1,.8877.5039l5.23242,10.67969,5.16015-11.95215a.82558.82558,0,0,1,.33594-.41992.9095.9095,0,0,1,.50391-.15527.98948.98948,0,0,1,.67187.252.83346.83346,0,0,1,.28809.66016,2.11312,2.11312,0,0,1-.04785.33594l-6.09668,13.7041a.91326.91326,0,0,1-.34766.40722.90132.90132,0,0,1-.49219.14454.86015.86015,0,0,1-.792-.52833l-5.25586-10.82421L381.57715,788.668a.78694.78694,0,0,1-.34766.35937,1.06354,1.06354,0,0,1-.54.14454.86015.86015,0,0,1-.792-.52833l-6.12012-13.77636a.73779.73779,0,0,1-.04785-.31153.78141.78141,0,0,1,.3125-.63574,1.10965,1.10965,0,0,1,.71973-.252.78941.78941,0,0,1,.792.52734l5.25586,12.02442Z" transform="translate(-63.12449 -110.75403)"/>
          <path class="cls-2" d="M411.10449,788.1875a7.15134,7.15134,0,0,1-2.7959-2.832,8.70958,8.70958,0,0,1-1.03222-4.32031,7.18212,7.18212,0,0,1,4.10449-6.7793,8.09438,8.09438,0,0,1,3.47949-.82813,8.61573,8.61573,0,0,1,3.57617.82813,7.615,7.615,0,0,1,3.06055,2.54394,7.06014,7.06014,0,0,1,1.23535,4.23536,8.45464,8.45464,0,0,1-1.05566,4.27246,7.51018,7.51018,0,0,1-6.624,3.86426A7.96236,7.96236,0,0,1,411.10449,788.1875Zm-1.248-3.69629a5.56429,5.56429,0,0,0,2.14843,2.25684,5.97841,5.97841,0,0,0,3.04785.792,5.82363,5.82363,0,0,0,2.97559-.78027,5.6273,5.6273,0,0,0,2.13672-2.23243,7.0408,7.0408,0,0,0,.792-3.41992,5.90085,5.90085,0,0,0-.94824-3.41992,5.69707,5.69707,0,0,0-2.33984-2.01562,6.60919,6.60919,0,0,0-2.76075-.63672,6.40571,6.40571,0,0,0-2.69922.6123,5.32732,5.32732,0,0,0-2.23242,1.98047,6.21608,6.21608,0,0,0-.89941,3.47949A7.09127,7.09127,0,0,0,409.85645,784.49121Z" transform="translate(-63.12449 -110.75403)"/>
          <path class="cls-2" d="M433.72266,788.0918a.76707.76707,0,0,1-.26465.6123.95527.95527,0,0,1-1.22363.01172.73361.73361,0,0,1-.26368-.60059V774.50781a.80529.80529,0,0,1,.24024-.6123.90114.90114,0,0,1,.64746-.22754h5.68848a7.75855,7.75855,0,0,1,3.41992.68359,4.81655,4.81655,0,0,1,2.84375,4.47656,4.57623,4.57623,0,0,1-1.05567,3.09571,5.21974,5.21974,0,0,1-3.21679,1.584l3.67285,3.96a.92122.92122,0,0,1,.31152.64746.75035.75035,0,0,1-.26367.57618.84784.84784,0,0,1-1.248-.07129l-4.63183-5.0166h-4.65625Zm4.84765-6a5.32011,5.32011,0,0,0,3.33594-.8877,2.77552,2.77552,0,0,0,1.12793-2.28027,3.37219,3.37219,0,0,0-1.22363-2.61621,4.80536,4.80536,0,0,0-3.24024-1.03223h-4.84765v6.81641Z" transform="translate(-63.12449 -110.75403)"/>
          <path class="cls-2" d="M464.92188,773.668a.89543.89543,0,0,1,.63574.26367.812.812,0,0,1,.27636.59961.84252.84252,0,0,1-.3125.624l-6.14355,5.40039,6.64746,6.91211a1.174,1.174,0,0,1,.3125.71973.68473.68473,0,0,1-.24023.52832.83454.83454,0,0,1-.57618.21582,1.05307,1.05307,0,0,1-.76757-.33594l-6.60059-6.96-2.54394,2.23145v4.22461a.76938.76938,0,0,1-.26368.6123.92761.92761,0,0,1-.624.22754.88243.88243,0,0,1-.6123-.22754.78607.78607,0,0,1-.252-.6123V774.4834a.74678.74678,0,0,1,.252-.59961.90589.90589,0,0,1,.6123-.21582.953.953,0,0,1,.624.21582.73168.73168,0,0,1,.26368.59961v7.44043l2.32812-2.35254,6.3125-5.61524A1.033,1.033,0,0,1,464.92188,773.668Z" transform="translate(-63.12449 -110.75403)"/>
          <path class="cls-2" d="M474.918,773.89551a.92584.92584,0,0,1,.624-.22754.9624.9624,0,0,1,.64844.22754.82573.82573,0,0,1,.26367.66015V788.0918a.75565.75565,0,0,1-.27637.6123.97073.97073,0,0,1-.63574.22754.95635.95635,0,0,1-.624-.21582.76032.76032,0,0,1-.26367-.624V774.55566A.82573.82573,0,0,1,474.918,773.89551Z" transform="translate(-63.12449 -110.75403)"/>
          <path class="cls-2" d="M497.43164,773.87207a1.08113,1.08113,0,0,1,.66016-.2041.99153.99153,0,0,1,.624.2041.67178.67178,0,0,1,.26367.56348v13.46386a.93939.93939,0,0,1-.32324.75586,1.16285,1.16285,0,0,1-.78027.27637,1.33231,1.33231,0,0,1-.60059-.14355,1.13881,1.13881,0,0,1-.45605-.40821l-8.97559-11.90429.19238,3.3125V788.044a.82626.82626,0,0,1-.26465.66015,1.03632,1.03632,0,0,1-1.29589,0,.8257.8257,0,0,1-.26368-.66015V774.72363a1.05436,1.05436,0,0,1,.27637-.78027.92768.92768,0,0,1,.6836-.27539,1.13733,1.13733,0,0,1,.55175.14355,1.17738,1.17738,0,0,1,.43262.40821l9.23926,12.14355-.23926-3.624v-8.30371A.6613.6613,0,0,1,497.43164,773.87207Z" transform="translate(-63.12449 -110.75403)"/>
          <path class="cls-2" d="M521.69824,786.292a6.89682,6.89682,0,0,1-2.67578,2.124,8.15459,8.15459,0,0,1-3.44434.75586,7.2651,7.2651,0,0,1-3.80371-1.05665,7.81516,7.81516,0,0,1-3.78027-6.93554,7.20219,7.20219,0,0,1,1.21191-4.2002,8.00179,8.00179,0,0,1,2.98829-2.65137,7.614,7.614,0,0,1,3.45605-.90039,8.82925,8.82925,0,0,1,3.168.57618,6.07031,6.07031,0,0,1,2.47168,1.67968.79978.79978,0,0,1,.21582.55176.853.853,0,0,1-.26367.624.76951.76951,0,0,1-1.2002-.04786,4.95347,4.95347,0,0,0-1.84765-1.332,5.73978,5.73978,0,0,0-2.25586-.46777,6.2557,6.2557,0,0,0-2.82032.73144,6.39974,6.39974,0,0,0-2.42382,2.16016,5.80363,5.80363,0,0,0-.97168,3.34863,6.338,6.338,0,0,0,.85156,3.12012,6.52265,6.52265,0,0,0,2.19629,2.30371,5.34617,5.34617,0,0,0,2.90332.86426,6.23026,6.23026,0,0,0,2.59277-.56445,5.06064,5.06064,0,0,0,2.01563-1.59571V782.1875h-4.32032a.74616.74616,0,0,1-.58789-.22754.785.785,0,0,1-.2041-.54.861.861,0,0,1,.2041-.57617.72818.72818,0,0,1,.58789-.24023h5.08887a.79514.79514,0,0,1,.91113.88769V785.5A1.31086,1.31086,0,0,1,521.69824,786.292Z" transform="translate(-63.12449 -110.75403)"/>
        </g>
      </g>
    </g>
  </g>
  <g id="Livello_5" data-name="Livello 5">
    <polygon class="cls-3" points="0 111.949 0 129.824 0 142.832 0 381.185 0 389.141 0 410.163 233.972 522.112 233.972 518.8 233.972 470.663 233.972 53.355 233.972 0.165 233.972 0 0 111.949"/>
    <polygon class="cls-4" points="468.868 111.949 468.868 129.824 468.868 142.832 468.868 381.185 468.868 389.141 468.868 410.163 233.973 522.112 233.973 518.8 233.973 470.663 233.973 53.355 233.973 0.165 233.973 0 468.868 111.949"/>
    <g>
      <polygon class="cls-5" points="35.252 95.082 0 112.05 0 410.127 35.252 427.03 35.252 95.082"/>
      <polygon class="cls-5" points="35.253 95.082 35.252 95.082 35.252 95.082 27.594 130.059 233.972 285.269 233.972 236.193 35.253 95.082"/>
    </g>
    <g>
      <polygon class="cls-1" points="433.55 95.082 468.802 112.05 468.802 410.127 433.55 427.03 433.55 95.082"/>
      <polygon class="cls-1" points="233.972 236.193 233.972 285.269 433.55 427.03 433.55 427.03 437.56 389.384 233.972 236.193"/>
    </g>
  </g>
</svg>
