<svg xmlns="http://www.w3.org/2000/svg" viewBox="0 0 468.69189 677.91685">
  <defs>
    <style>
      .cls-1 {
        fill: #a6a5a5;
      }

      .cls-2 {
        fill: #68539f;
      }

      .cls-3 {
        fill: #15171d;
      }

      .cls-4 {
        fill: #272e36;
      }

      .cls-5 {
        fill: #4e318d;
      }
    </style>
  </defs>
  <title>MarkComputingWeb</title>
  <g id="Livello_1" data-name="Livello 1">
    <g>
      <g>
        <path class="cls-1" d="M152.19824,773.333a.37692.37692,0,0,1,.27637.10742.44071.44071,0,0,1,.1084.32422V788.165a.42481.42481,0,0,1-.12012.31152.39556.39556,0,0,1-.28809.12012.39362.39362,0,0,1-.4082-.43164V775.06055l-6.19238,9.71972a.4451.4451,0,0,1-.40723.26465.46368.46368,0,0,1-.43261-.26465L138.543,775.1084V788.165a.39362.39362,0,0,1-.4082.43164.39241.39241,0,0,1-.28809-.12012.421.421,0,0,1-.12012-.31152V773.76465a.41518.41518,0,0,1,.12012-.32422.38884.38884,0,0,1,.26367-.10742.4339.4339,0,0,1,.38379.23926l6.67285,10.39257,6.624-10.39257A.48792.48792,0,0,1,152.19824,773.333Z" transform="translate(-63.29405 -111.256)"/>
        <path class="cls-1" d="M165.38867,787.76855a7.68357,7.68357,0,0,1-2.80762-2.93945,8.63823,8.63823,0,0,1,.21583-8.40039,7.02716,7.02716,0,0,1,2.82031-2.52051,7.9115,7.9115,0,0,1,3.46777-.81543,8.17863,8.17863,0,0,1,3.58789.86426,7.51837,7.51837,0,0,1,2.98828,2.65137,7.6408,7.6408,0,0,1,1.19922,4.35644,7.84034,7.84034,0,0,1-1.04394,4.00782,7.70938,7.70938,0,0,1-2.7959,2.832,7.45773,7.45773,0,0,1-7.63184-.03614Zm-2.04-3.21582a7.03018,7.03018,0,0,0,2.50782,2.5918,6.5133,6.5133,0,0,0,6.76855,0,7.03015,7.03015,0,0,0,2.50781-2.5918,7.17149,7.17149,0,0,0,.93555-3.6123,6.93118,6.93118,0,0,0-1.0791-3.97168,6.62542,6.62542,0,0,0-2.7002-2.35254,7.53452,7.53452,0,0,0-3.2041-.75586,7.07306,7.07306,0,0,0-3.18066.75586,6.15149,6.15149,0,0,0-2.50782,2.35254,7.439,7.439,0,0,0-.98339,3.97168A7.17158,7.17158,0,0,0,163.34863,784.55273Z" transform="translate(-63.29405 -111.256)"/>
        <path class="cls-1" d="M186.07715,788.59668a.64368.64368,0,0,1-.45606-.17969.58392.58392,0,0,1-.1914-.44433v-14.04a.55826.55826,0,0,1,.1914-.41992.64368.64368,0,0,1,.45606-.17969h5.56836a6.5857,6.5857,0,0,1,6.25195,3.91211,9.00966,9.00966,0,0,1,0,7.43945,6.5857,6.5857,0,0,1-6.25195,3.91211Zm5.56836-.74414a5.8815,5.8815,0,0,0,3.4082-.97168,6.11169,6.11169,0,0,0,2.13574-2.55664,8.25689,8.25689,0,0,0,0-6.74317,6.11169,6.11169,0,0,0-2.13574-2.55664,5.8815,5.8815,0,0,0-3.4082-.97168h-5.42383v13.79981Z" transform="translate(-63.29405 -111.256)"/>
        <path class="cls-1" d="M220.61914,773.74023a.38422.38422,0,0,1,.12012-.2998.41826.41826,0,0,1,.28808-.10742.38884.38884,0,0,1,.26368.10742.35532.35532,0,0,1,.12011.27637v8.23144a6.933,6.933,0,0,1-.97168,3.74414,6.28085,6.28085,0,0,1-2.55566,2.35254,7.62674,7.62674,0,0,1-6.76856,0,6.35363,6.35363,0,0,1-2.56738-2.35254,6.87,6.87,0,0,1-.98437-3.74414V773.7168a.35532.35532,0,0,1,.12011-.27637.38389.38389,0,0,1,.64746.2998v8.208a6.076,6.076,0,0,0,.86426,3.3125,5.5495,5.5495,0,0,0,2.28028,2.06348,6.811,6.811,0,0,0,6,0,5.55552,5.55552,0,0,0,2.28027-2.06348,6.08411,6.08411,0,0,0,.86328-3.3125Z" transform="translate(-63.29405 -111.256)"/>
        <path class="cls-1" d="M231.25879,788.14062V773.78906a.45266.45266,0,0,1,.11914-.33594.40554.40554,0,0,1,.57617,0,.45312.45312,0,0,1,.12012.33594v14.06348H242.1543a.40312.40312,0,0,1,.2998.1084.3424.3424,0,0,1,.1084.25195.38546.38546,0,0,1-.1084.26367.38142.38142,0,0,1-.2998.12012H231.69043Q231.2583,788.59668,231.25879,788.14062Z" transform="translate(-63.29405 -111.256)"/>
        <path class="cls-1" d="M258.03516,773.11621l7.65625,15.04883a.39922.39922,0,0,1,.04785.21582.35186.35186,0,0,1-.12012.27539.41629.41629,0,0,1-.28809.1084.37116.37116,0,0,1-.33593-.21582l-2.13574-4.248H252.53906l-2.13574,4.248a.34126.34126,0,0,1-.33594.21582.41458.41458,0,0,1-.28808-.1084.35186.35186,0,0,1-.12012-.27539.39053.39053,0,0,1,.04785-.21582l7.63184-15.04883a.38873.38873,0,0,1,.36035-.21582A.34127.34127,0,0,1,258.03516,773.11621Zm-5.13575,10.46484h9.5752l-4.77539-9.5039Z" transform="translate(-63.29405 -111.256)"/>
        <path class="cls-1" d="M274.61621,788.18848a.38.38,0,0,1-.12012.2998.41456.41456,0,0,1-.28808.1084.38543.38543,0,0,1-.26367-.1084.35185.35185,0,0,1-.12012-.27539V773.74023a.38422.38422,0,0,1,.12012-.2998.41824.41824,0,0,1,.28808-.10742h6.04785a7.58927,7.58927,0,0,1,3.34766.67187,4.85614,4.85614,0,0,1,2.07617,1.79981,4.703,4.703,0,0,1,.69629,2.51953,4.236,4.236,0,0,1-1.332,3.24023,6.2164,6.2164,0,0,1-3.90039,1.44043l4.7998,4.89551a.43542.43542,0,0,1,.14453.3125.37005.37005,0,0,1-.10839.27539.34242.34242,0,0,1-.252.1084.41732.41732,0,0,1-.28808-.14356l-5.23145-5.47265h-5.61621Zm5.68848-5.90332a6.16291,6.16291,0,0,0,3.94726-1.08008,3.42146,3.42146,0,0,0,1.332-2.78418,4.00056,4.00056,0,0,0-.63574-2.19629,4.35893,4.35893,0,0,0-1.82422-1.57227,6.40709,6.40709,0,0,0-2.81933-.57519h-5.68848v8.208Z" transform="translate(-63.29405 -111.256)"/>
      </g>
      <g>
        <path class="cls-1" d="M322.415,775.80469a.77145.77145,0,0,1,.2168.52832.75187.75187,0,0,1-.27637.56347.888.888,0,0,1-.61231.252.781.781,0,0,1-.55175-.26367,5.59732,5.59732,0,0,0-2.01563-1.4043,6.45589,6.45589,0,0,0-2.35254-.41992,7.72548,7.72548,0,0,0-2.87988.56445,5.27346,5.27346,0,0,0-2.376,1.91992,6.04244,6.04244,0,0,0-.96,3.56348,6.46733,6.46733,0,0,0,.82813,3.24023,6.29773,6.29773,0,0,0,2.21972,2.31641,5.6899,5.6899,0,0,0,3.02442.85156,5.9493,5.9493,0,0,0,2.62793-.59961,5.81072,5.81072,0,0,0,2.07617-1.68066.69042.69042,0,0,1,.59961-.31153.95672.95672,0,0,1,.624.24024.72509.72509,0,0,1,.28809.57519.8092.8092,0,0,1-.14356.45606,6.61606,6.61606,0,0,1-2.66406,2.17187,8.01608,8.01608,0,0,1-3.45605.80469,7.40921,7.40921,0,0,1-3.81641-1.04394,7.80123,7.80123,0,0,1-2.84375-2.9043,8.16375,8.16375,0,0,1-1.06836-4.13965,7.19257,7.19257,0,0,1,1.23633-4.2959,7.5099,7.5099,0,0,1,3.04785-2.54492,8.69853,8.69853,0,0,1,3.58789-.81543A7.4058,7.4058,0,0,1,322.415,775.80469Z" transform="translate(-63.29405 -111.256)"/>
        <path class="cls-1" d="M334.33789,788.18848a7.1514,7.1514,0,0,1-2.7959-2.832,8.7096,8.7096,0,0,1-1.03222-4.32032,7.18212,7.18212,0,0,1,4.10449-6.77929,8.09438,8.09438,0,0,1,3.47949-.82813,8.61573,8.61573,0,0,1,3.57617.82813,7.6149,7.6149,0,0,1,3.06055,2.54394,7.06013,7.06013,0,0,1,1.23535,4.23535,8.45459,8.45459,0,0,1-1.05566,4.27246,7.51012,7.51012,0,0,1-6.624,3.86426A7.96235,7.96235,0,0,1,334.33789,788.18848Zm-1.24805-3.69629a5.56435,5.56435,0,0,0,2.14844,2.25683,5.97832,5.97832,0,0,0,3.04785.792,5.82364,5.82364,0,0,0,2.97559-.78028,5.62721,5.62721,0,0,0,2.13672-2.23242,7.0408,7.0408,0,0,0,.792-3.41992,5.90083,5.90083,0,0,0-.94824-3.41992,5.69705,5.69705,0,0,0-2.33985-2.01563,6.60911,6.60911,0,0,0-2.76074-.63672,6.40557,6.40557,0,0,0-2.69922.61231,5.32732,5.32732,0,0,0-2.23242,1.98047,6.21606,6.21606,0,0,0-.89941,3.47949A7.09141,7.09141,0,0,0,333.08984,784.49219Z" transform="translate(-63.29405 -111.256)"/>
        <path class="cls-1" d="M369.36426,773.669a.7686.7686,0,0,1,.57617.25195.94911.94911,0,0,1,.24023.68359v13.46387a.81546.81546,0,0,1-.25195.63672.88245.88245,0,0,1-.6123.22754.92585.92585,0,0,1-.624-.22754.79731.79731,0,0,1-.26367-.63672V777.50879l-4.89648,7.65625a.9317.9317,0,0,1-.81543.50391.98932.98932,0,0,1-.84082-.50391l-4.89551-7.6084v10.51172a.81549.81549,0,0,1-.252.63672.88246.88246,0,0,1-.61231.22754.92584.92584,0,0,1-.624-.22754.79731.79731,0,0,1-.26367-.63672V774.62891a.96642.96642,0,0,1,.252-.69629.78787.78787,0,0,1,.58789-.26367.81952.81952,0,0,1,.43164.13183,1.01737,1.01737,0,0,1,.36035.39551l5.85645,9.09668,5.80761-9.12012A.95025.95025,0,0,1,369.36426,773.669Z" transform="translate(-63.29405 -111.256)"/>
        <path class="cls-1" d="M382.02148,788.11621a.74882.74882,0,0,1-.252.60059.91.91,0,0,1-.61133.21582.94345.94345,0,0,1-.6123-.2041.71228.71228,0,0,1-.252-.5879V774.50879a.77871.77871,0,0,1,.26367-.60059.89927.89927,0,0,1,.624-.23925h5.208a6.69729,6.69729,0,0,1,3.36035.77929,5.19175,5.19175,0,0,1,2.05176,2.04,5.5751,5.5751,0,0,1,.68359,2.7002,5.26333,5.26333,0,0,1-.68359,2.67578,4.78006,4.78006,0,0,1-2.07617,1.88476,7.56543,7.56543,0,0,1-3.40821.69532h-4.2959Zm4.2959-5.23144a5.38642,5.38642,0,0,0,2.52051-.52832,3.45716,3.45716,0,0,0,1.47559-1.36817,3.631,3.631,0,0,0,.46777-1.7998,3.77991,3.77991,0,0,0-.52734-1.91993,4.01418,4.01418,0,0,0-1.51172-1.47558,4.60568,4.60568,0,0,0-2.32813-.56445h-4.39258v7.65625Z" transform="translate(-63.29405 -111.256)"/>
        <path class="cls-1" d="M413.7793,773.65625a.95807.95807,0,0,1,.64746-.22754.92584.92584,0,0,1,.624.22754.7973.7973,0,0,1,.26367.63672v7.94336a6.8542,6.8542,0,0,1-1.00781,3.78027,6.44124,6.44124,0,0,1-2.62793,2.36426,7.88351,7.88351,0,0,1-6.88769,0,6.44124,6.44124,0,0,1-2.62793-2.36426,6.8542,6.8542,0,0,1-1.00782-3.78027V774.2207a.69594.69594,0,0,1,.26368-.58789,1.06766,1.06766,0,0,1,1.27148.01172.73216.73216,0,0,1,.26465.59961v7.99219a5.1847,5.1847,0,0,0,.74414,2.832,4.78863,4.78863,0,0,0,1.956,1.77637,5.84865,5.84865,0,0,0,5.15918,0,4.7947,4.7947,0,0,0,1.95606-1.77637,5.18479,5.18479,0,0,0,.74414-2.832v-7.91992A.82317.82317,0,0,1,413.7793,773.65625Z" transform="translate(-63.29405 -111.256)"/>
        <path class="cls-1" d="M437.37305,773.9082a.807.807,0,0,1,.22851.57618.83718.83718,0,0,1-.22851.60058.86726.86726,0,0,1-.66016.23926h-5.35156l.02344,12.7207a.79708.79708,0,0,1-.28809.64746.95294.95294,0,0,1-.624.24024.89461.89461,0,0,1-.59961-.22754.82575.82575,0,0,1-.26367-.66016v-12.7207h-5.32813a.7861.7861,0,0,1-.6123-.25195.85.85,0,0,1-.22754-.58789.79888.79888,0,0,1,.83984-.81543h12.43164A.87094.87094,0,0,1,437.37305,773.9082Z" transform="translate(-63.29405 -111.256)"/>
        <path class="cls-1" d="M445.93359,773.89648a.92591.92591,0,0,1,.624-.22753.9624.9624,0,0,1,.64843.22753.82572.82572,0,0,1,.26368.66016v13.53613a.75571.75571,0,0,1-.27637.61231.97075.97075,0,0,1-.63574.22754.95643.95643,0,0,1-.624-.21582.76034.76034,0,0,1-.26367-.624V774.55664A.82575.82575,0,0,1,445.93359,773.89648Z" transform="translate(-63.29405 -111.256)"/>
        <path class="cls-1" d="M468.44727,773.87305a1.081,1.081,0,0,1,.66015-.2041.9915.9915,0,0,1,.624.2041.67177.67177,0,0,1,.26367.56347v13.46387a.93941.93941,0,0,1-.32324.75586,1.16288,1.16288,0,0,1-.78028.27637,1.33215,1.33215,0,0,1-.60058-.14356,1.13888,1.13888,0,0,1-.45606-.4082l-8.97558-11.9043.19238,3.3125v8.25586a.82631.82631,0,0,1-.26465.66016,1.03633,1.03633,0,0,1-1.2959,0,.82575.82575,0,0,1-.26367-.66016V774.72461a1.05434,1.05434,0,0,1,.27637-.78027.92762.92762,0,0,1,.68359-.27539,1.13737,1.13737,0,0,1,.55176.14355,1.17735,1.17735,0,0,1,.43262.4082l9.23925,12.14356-.23925-3.624v-8.30371A.66127.66127,0,0,1,468.44727,773.87305Z" transform="translate(-63.29405 -111.256)"/>
        <path class="cls-1" d="M492.71387,786.293a6.89678,6.89678,0,0,1-2.67578,2.124,8.15444,8.15444,0,0,1-3.44434.75586,7.26506,7.26506,0,0,1-3.80371-1.05664,7.8151,7.8151,0,0,1-3.78027-6.93555,7.20211,7.20211,0,0,1,1.21191-4.20019A8.00176,8.00176,0,0,1,483.21,774.3291a7.61408,7.61408,0,0,1,3.45606-.90039,8.82923,8.82923,0,0,1,3.168.57617,6.07019,6.07019,0,0,1,2.47168,1.67969.79973.79973,0,0,1,.21582.55176.853.853,0,0,1-.26367.624.76949.76949,0,0,1-1.20019-.04785,4.95359,4.95359,0,0,0-1.84766-1.332,5.73975,5.73975,0,0,0-2.25586-.46777,6.25563,6.25563,0,0,0-2.82031.73144A6.39968,6.39968,0,0,0,481.71,777.9043a5.80363,5.80363,0,0,0-.97168,3.34863,6.33818,6.33818,0,0,0,.85156,3.12012,6.52265,6.52265,0,0,0,2.19629,2.30371,5.34619,5.34619,0,0,0,2.90332.86426,6.23012,6.23012,0,0,0,2.59278-.56446,5.06057,5.06057,0,0,0,2.01562-1.5957v-3.19238h-4.32031a.74615.74615,0,0,1-.58789-.22754.78505.78505,0,0,1-.2041-.54.861.861,0,0,1,.2041-.57617.72817.72817,0,0,1,.58789-.24024h5.08887a.79514.79514,0,0,1,.91113.8877V785.501A1.3109,1.3109,0,0,1,492.71387,786.293Z" transform="translate(-63.29405 -111.256)"/>
      </g>
    </g>
    <g>
      <path class="cls-2" d="M110.09424,750.39844a1.38818,1.38818,0,0,1,1.0918.40918,1.68651,1.68651,0,0,1,0,2.09375,1.38818,1.38818,0,0,1-1.0918.40918H69.32617a2.31988,2.31988,0,0,1-1.77441-.72754,2.44206,2.44206,0,0,1-.68262-1.72949V697.80078a2.28812,2.28812,0,0,1,.68262-1.68359,2.39935,2.39935,0,0,1,1.77441-.68262h40.85889a1.27391,1.27391,0,0,1,1.001.40918,1.43553,1.43553,0,0,1,0,1.91113,1.38484,1.38484,0,0,1-1.0918.40918H69.87207v25.11621h38.40186a1.3697,1.3697,0,1,1,0,2.73047H69.87207v24.3877Z" transform="translate(-63.29405 -111.256)"/>
      <path class="cls-2" d="M124.0166,751.582V697.16309a1.71824,1.71824,0,0,1,.45508-1.27344,1.53781,1.53781,0,0,1,2.18408,0,1.72411,1.72411,0,0,1,.45508,1.27344v53.32617h38.21973a1.53715,1.53715,0,0,1,1.13769.41015,1.30772,1.30772,0,0,1,.40967.95508,1.4636,1.4636,0,0,1-.40967,1.001,1.44859,1.44859,0,0,1-1.13769.45508H125.65479Q124.01636,753.31055,124.0166,751.582Z" transform="translate(-63.29405 -111.256)"/>
      <path class="cls-2" d="M218.47363,750.39844a1.38815,1.38815,0,0,1,1.0918.40918,1.68648,1.68648,0,0,1,0,2.09375,1.38815,1.38815,0,0,1-1.0918.40918H177.70557a2.3199,2.3199,0,0,1-1.77442-.72754,2.44205,2.44205,0,0,1-.68261-1.72949V697.80078a2.28811,2.28811,0,0,1,.68261-1.68359,2.39937,2.39937,0,0,1,1.77442-.68262h40.85888a1.27389,1.27389,0,0,1,1.001.40918,1.4355,1.4355,0,0,1,0,1.91113,1.38481,1.38481,0,0,1-1.0918.40918H178.25146v25.11621h38.40186a1.3697,1.3697,0,1,1,0,2.73047H178.25146v24.3877Z" transform="translate(-63.29405 -111.256)"/>
      <path class="cls-2" d="M287.17725,695.43457a1.41812,1.41812,0,0,1,1.04589.40918,1.66776,1.66776,0,0,1,.41016,1.22852v54.60058a1.59931,1.59931,0,0,1-.45508,1.18262,1.48718,1.48718,0,0,1-1.09179.45508,1.48827,1.48827,0,0,1-1.54688-1.6377V701.98633L262.061,738.8418a1.69367,1.69367,0,0,1-1.54688,1.001,1.75721,1.75721,0,0,1-1.6377-1.001L235.398,702.169v49.5039a1.48955,1.48955,0,0,1-1.54688,1.6377,1.48251,1.48251,0,0,1-1.09179-.45508,1.59173,1.59173,0,0,1-.45508-1.18262V697.07227a1.56544,1.56544,0,0,1,.45508-1.22852,1.46525,1.46525,0,0,1,1.001-.40918,1.64949,1.64949,0,0,1,1.45606.91016l25.29785,39.40234,25.11621-39.40234A1.85546,1.85546,0,0,1,287.17725,695.43457Z" transform="translate(-63.29405 -111.256)"/>
      <path class="cls-2" d="M347.418,750.39844a1.38967,1.38967,0,0,1,1.09277.40918,1.69,1.69,0,0,1,0,2.09375,1.38967,1.38967,0,0,1-1.09277.40918H306.65039a2.31988,2.31988,0,0,1-1.77441-.72754,2.44206,2.44206,0,0,1-.68262-1.72949V697.80078a2.28812,2.28812,0,0,1,.68262-1.68359,2.39935,2.39935,0,0,1,1.77441-.68262h40.85938a1.27527,1.27527,0,0,1,1.001.40918,1.43839,1.43839,0,0,1,0,1.91113,1.38633,1.38633,0,0,1-1.09277.40918H307.19629v25.11621h38.40234a1.36966,1.36966,0,1,1,0,2.73047H307.19629v24.3877Z" transform="translate(-63.29405 -111.256)"/>
      <path class="cls-2" d="M404.293,695.88965a1.53722,1.53722,0,0,1,2.18359,0,1.72021,1.72021,0,0,1,.45508,1.27344v54.32714a1.83568,1.83568,0,0,1-.40918,1.27442,1.25,1.25,0,0,1-.95508.45508,2.34053,2.34053,0,0,1-1.82031-1.001l-39.585-51.2334v50.6875a1.69566,1.69566,0,0,1-.41016,1.18262,1.33987,1.33987,0,0,1-1.0459.45508,1.48955,1.48955,0,0,1-1.54687-1.6377V697.3457a2.18058,2.18058,0,0,1,.40918-1.41113,1.29674,1.29674,0,0,1,1.04687-.5,2.109,2.109,0,0,1,1.72852,1.001l39.49414,51.2334V697.16309A1.71629,1.71629,0,0,1,404.293,695.88965Z" transform="translate(-63.29405 -111.256)"/>
      <path class="cls-2" d="M465.89941,695.43457a1.67,1.67,0,0,1,1.22852.40918,1.31,1.31,0,0,1,.41016.95605,1.25172,1.25172,0,0,1-.45508.95508,1.70262,1.70262,0,0,1-1.1836.40918H442.33105l.09083,53.418a1.63574,1.63574,0,0,1-1.6377,1.72852,1.48312,1.48312,0,0,1-1.09277-.45508,1.7187,1.7187,0,0,1-.45508-1.27344v-53.418H415.75879a1.6951,1.6951,0,0,1-1.18262-.40918,1.2485,1.2485,0,0,1-.45508-.95508,1.30907,1.30907,0,0,1,.40918-.95605,1.67158,1.67158,0,0,1,1.22852-.40918Z" transform="translate(-63.29405 -111.256)"/>
      <path class="cls-2" d="M483.28027,750.1709a29.15589,29.15589,0,0,1-10.64746-11.14746,30.48682,30.48682,0,0,1-3.73047-15.65235q.27246-9.73534,4.54981-16.19726a26.60781,26.60781,0,0,1,10.69238-9.55567,29.97132,29.97132,0,0,1,13.14942-3.09375,31.00726,31.00726,0,0,1,13.60449,3.27637,28.48877,28.48877,0,0,1,11.33008,10.05567q4.54833,6.7793,4.5498,16.51562a29.72648,29.72648,0,0,1-3.959,15.19727,29.26573,29.26573,0,0,1-10.60059,10.73828,28.28476,28.28476,0,0,1-28.93848-.13672Zm-7.73535-12.19434a26.64385,26.64385,0,0,0,9.50977,9.82813,24.6968,24.6968,0,0,0,25.66211,0,26.65151,26.65151,0,0,0,9.50976-9.82813,27.19908,27.19908,0,0,0,3.54883-13.69531q0-9.00879-4.09473-15.06055a25.06981,25.06981,0,0,0-10.23828-8.918,28.55392,28.55392,0,0,0-12.14843-2.86621,26.8037,26.8037,0,0,0-12.05762,2.86621,23.27036,23.27036,0,0,0-9.50879,8.918q-3.73242,6.05274-3.73145,15.06055A27.19918,27.19918,0,0,0,475.54492,737.97656Z" transform="translate(-63.29405 -111.256)"/>
    </g>
  </g>
  <g id="Livello_4" data-name="Livello 4">
    <polygon class="cls-3" points="233.917 0.164 0 129.793 0 389.049 233.917 518.678 233.917 0.164"/>
    <polygon class="cls-4" points="233.918 0.164 468.692 129.793 468.692 389.049 233.918 518.678 233.918 0.164"/>
    <polygon class="cls-5" points="233.917 0 0 111.922 0 142.799 233.917 53.342 233.917 0"/>
    <polygon class="cls-5" points="233.917 470.552 0 381.095 0 410.066 233.917 521.989 233.917 470.552"/>
    <rect class="cls-5" y="119.45766" width="23.55952" height="278.57882"/>
    <polygon class="cls-2" points="233.918 0 468.692 111.922 468.692 142.799 233.918 53.342 233.918 0"/>
    <polygon class="cls-2" points="233.918 470.552 468.692 381.095 468.692 410.066 233.918 521.989 233.918 470.552"/>
  </g>
</svg>
