<svg id="Livello_1" data-name="Livello 1" xmlns="http://www.w3.org/2000/svg" viewBox="0 0 508.07081 565.76685"><defs><style>.cls-1{fill:#10131a;}.cls-1,.cls-2{opacity:0.1;}.cls-2{fill:#fff;}.cls-3{fill:#720404;}.cls-4{fill:#aa3939;}</style></defs><title>NetworkingLogoTransparent</title><polygon class="cls-1" points="0 121.31 0 140.678 0 154.775 0 413.057 0 421.678 0 444.457 253.535 565.767 253.535 562.178 253.535 510.016 253.535 57.816 253.535 0.178 253.535 0 0 121.31"/><polygon class="cls-2" points="508.071 121.31 508.071 140.678 508.071 154.775 508.071 413.057 508.071 421.678 508.071 444.457 253.536 565.767 253.536 562.178 253.536 510.016 253.536 57.816 253.536 0.178 253.536 0 508.071 121.31"/><polygon class="cls-3" points="38.2 103.032 0 121.419 0 444.419 38.2 462.735 38.2 103.032"/><polygon class="cls-3" points="38.2 103.033 38.2 103.032 38.2 103.032 29.902 140.933 253.535 309.121 253.535 255.942 38.2 103.033"/><polygon class="cls-4" points="469.8 103.032 508 121.419 508 444.419 469.8 462.735 469.8 103.032"/><polygon class="cls-4" points="253.535 255.942 253.535 309.121 469.8 462.734 469.8 462.735 474.145 421.942 253.535 255.942"/></svg>