<svg id="Livello_1" data-name="Livello 1" xmlns="http://www.w3.org/2000/svg" viewBox="0 0 507.99994 565.76682"><defs><style>.cls-1{fill:#10131a;}.cls-1,.cls-2{opacity:0.1;}.cls-2{fill:#fff;}.cls-3{fill:#52b702;}.cls-4{fill:#91dd4e;}</style></defs><title>PowerLogoTransparent</title><polygon class="cls-1" points="0 140.678 0 413.057 0 421.678 0 444.457 253.535 565.767 253.535 562.178 253.535 510.016 253.535 0.178 0 140.678"/><polygon class="cls-2" points="253.536 0.178 508 140.678 508 421.678 253.536 562.178 253.536 0.178"/><polygon class="cls-3" points="253.535 0 0 121.309 0 154.775 253.535 57.816 253.535 0"/><polygon class="cls-3" points="253.535 258.105 0 269.174 0 298.658 253.535 309.726 253.535 258.105"/><polygon class="cls-3" points="25.535 142.476 0 142.476 0 444.419 25.535 456.675 25.535 142.476"/><polygon class="cls-4" points="253.536 0 508 121.309 508 154.775 253.536 57.816 253.536 0"/><polygon class="cls-4" points="253.536 258.105 508 269.174 508 298.658 253.536 309.726 253.536 258.105"/><rect class="cls-4" x="482.46454" y="123.4763" width="25.5354" height="157.94256"/></svg>