<svg id="Livello_2" data-name="Livello 2" xmlns="http://www.w3.org/2000/svg" viewBox="0 0 523.0852 698.36354"><defs><style>.cls-1{fill:#10131a;}.cls-2{fill:#272c35;}.cls-3{fill:#ffa600;}.cls-4{fill:#ffd464;}.cls-5{isolation:isolate;}.cls-6{fill:none;stroke:#ffd464;stroke-miterlimit:10;stroke-width:2.26px;}.cls-7{fill:#a6a6a6;}</style></defs><title>MarkDark</title><polygon class="cls-1" points="263.49 0.32 9.49 140.82 9.49 421.82 263.49 562.32 263.49 0.32"/><polygon class="cls-2" points="263.49 0.832 517.49 141.076 517.49 421.564 263.49 561.808 263.49 0.832"/><polygon class="cls-3" points="263.49 0 9.49 121.531 9.49 155.059 263.49 57.922 263.49 0"/><polygon class="cls-3" points="263.49 510.196 9.49 413.059 9.49 444.516 263.49 566.049 263.49 510.196"/><polygon class="cls-3" points="263.49 258.2 9.49 269.289 9.49 298.827 263.49 309.915 263.49 258.2"/><polygon class="cls-4" points="263.49 0.283 517.49 121.371 517.49 154.776 263.49 57.994 263.49 0.283"/><polygon class="cls-4" points="263.49 510.12 517.49 413.338 517.49 444.681 263.49 565.77 263.49 510.12"/><polygon class="cls-4" points="263.49 258.294 517.49 269.343 517.49 298.773 263.49 309.821 263.49 258.294"/><g class="cls-5"><path class="cls-4" d="M22.51562,659.67314H66.12646v1.72461H20.63965V581.052H65.89209v1.72364H22.51562v37.47167H64.9541v1.83985H22.51562Z" transform="translate(-19.50965 -0.70119)"/></g><g class="cls-5"><path class="cls-6" d="M22.51562,659.67314H66.12646v1.72461H20.63965V581.052H65.89209v1.72364H22.51562v37.47167H64.9541v1.83985H22.51562Z" transform="translate(-19.50965 -0.70119)"/></g><g class="cls-5"><path class="cls-4" d="M78.96484,659.55888h44.07959v1.83887H77.08887V581.052h1.876Z" transform="translate(-19.50965 -0.70119)"/></g><g class="cls-5"><path class="cls-6" d="M78.96484,659.55888h44.07959v1.83887H77.08887V581.052h1.876Z" transform="translate(-19.50965 -0.70119)"/></g><g class="cls-5"><path class="cls-4" d="M134.59473,659.67314h43.61084v1.72461H132.71875V581.052h45.25244v1.72364H134.59473v37.47167H177.0332v1.83985H134.59473Z" transform="translate(-19.50965 -0.70119)"/></g><g class="cls-5"><path class="cls-6" d="M134.59473,659.67314h43.61084v1.72461H132.71875V581.052h45.25244v1.72364H134.59473v37.47167H177.0332v1.83985H134.59473Z" transform="translate(-19.50965 -0.70119)"/></g><g class="cls-5"><path class="cls-4" d="M190.92773,661.39775H189.169V580.93681h1.876l33.99756,49.31054,34.11475-49.31054h1.876v80.46094h-1.75879V583.58036l-33.41113,48.73633h-1.52392l-33.41163-48.73633Z" transform="translate(-19.50965 -0.70119)"/></g><g class="cls-5"><path class="cls-6" d="M190.92773,661.39775H189.169V580.93681h1.876l33.99756,49.31054,34.11475-49.31054h1.876v80.46094h-1.75879V583.58036l-33.41113,48.73633h-1.52392l-33.41163-48.73633Z" transform="translate(-19.50965 -0.70119)"/></g><g class="cls-5"><path class="cls-4" d="M276.335,659.67314h43.61035v1.72461H274.459V581.052h45.252v1.72364H276.335v37.47167h42.43848v1.83985H276.335Z" transform="translate(-19.50965 -0.70119)"/></g><g class="cls-5"><path class="cls-6" d="M276.335,659.67314h43.61035v1.72461H274.459V581.052h45.252v1.72364H276.335v37.47167h42.43848v1.83985H276.335Z" transform="translate(-19.50965 -0.70119)"/></g><g class="cls-5"><path class="cls-4" d="M330.9082,661.39775V580.82157l1.6416.11524L387.06348,658.179V580.93681h1.75781v80.46094h-1.875l-54.16211-76.78321v76.78321Z" transform="translate(-19.50965 -0.70119)"/></g><g class="cls-5"><path class="cls-6" d="M330.9082,661.39775V580.82157l1.6416.11524L387.06348,658.179V580.93681h1.75781v80.46094h-1.875l-54.16211-76.78321v76.78321Z" transform="translate(-19.50965 -0.70119)"/></g><g class="cls-5"><path class="cls-4" d="M426.04688,661.74247V582.77568h-28.3711v-1.83887h58.5v1.83887H427.80469v78.96679Z" transform="translate(-19.50965 -0.70119)"/></g><g class="cls-5"><path class="cls-6" d="M426.04688,661.74247V582.77568h-28.3711v-1.83887h58.5v1.83887H427.80469v78.96679Z" transform="translate(-19.50965 -0.70119)"/></g><g class="cls-5"><path class="cls-4" d="M469.95215,591.971a40.778,40.778,0,1,1-12.30957,29.19629A41.48141,41.48141,0,0,1,469.95215,591.971Zm57.91308,1.37988a40.04543,40.04543,0,0,0-56.624,0,38.86375,38.86375,0,0,0,0,55.63281,40.04543,40.04543,0,0,0,56.624,0,39.13609,39.13609,0,0,0,0-55.63281Z" transform="translate(-19.50965 -0.70119)"/></g><g class="cls-5"><path class="cls-6" d="M469.95215,591.971a40.778,40.778,0,1,1-12.30957,29.19629A41.48141,41.48141,0,0,1,469.95215,591.971Zm57.91308,1.37988a40.04543,40.04543,0,0,0-56.624,0,38.86375,38.86375,0,0,0,0,55.63281,40.04543,40.04543,0,0,0,56.624,0,39.13609,39.13609,0,0,0,0-55.63281Z" transform="translate(-19.50965 -0.70119)"/></g><g class="cls-5"><path class="cls-7" d="M121.5376,698.846V688.7161h-.064L117.2832,698.846h-1.38427L111.7085,688.7161h-.064V698.846h-1.53027V685.70146h1.90381l4.53662,11.05859h.07275l4.53662-11.05859h1.90381V698.846Z" transform="translate(-19.50965 -0.70119)"/></g><g class="cls-5"><path class="cls-7" d="M151.86133,692.27763c0,4.17285-2.332,6.78711-6.05762,6.78711-3.72607,0-6.0581-2.61426-6.0581-6.78711,0-4.17188,2.332-6.79492,6.0581-6.79492C149.5293,685.48271,151.86133,688.10575,151.86133,692.27763Zm-10.43018,0c0,3.23437,1.68506,5.27441,4.37256,5.27441,2.687,0,4.37256-2.04,4.37256-5.27441,0-3.24219-1.68555-5.2832-4.37256-5.2832C143.11621,686.99443,141.43115,689.03544,141.43115,692.27763Z" transform="translate(-19.50965 -0.70119)"/></g><g class="cls-5"><path class="cls-7" d="M172.97656,685.70146c3.89893,0,6.20362,2.43164,6.20362,6.56738,0,4.14453-2.29541,6.57715-6.20362,6.57715h-4.418V685.70146Zm-2.77832,11.66894h2.66895c2.979,0,4.63672-1.82226,4.63672-5.083,0-3.28906-1.64844-5.11035-4.63672-5.11035h-2.66895Z" transform="translate(-19.50965 -0.70119)"/><path class="cls-7" d="M197.49854,694.12724a3.58359,3.58359,0,0,0,7.16015,0v-8.42578h1.63965v8.53515c0,2.80567-1.9585,4.82813-5.21973,4.82813s-5.21972-2.02246-5.21972-4.82813v-8.53515h1.63965Z" transform="translate(-19.50965 -0.70119)"/></g><g class="cls-5"><path class="cls-7" d="M231.4668,698.846h-7.98V685.70146h1.63964V697.3704h6.34034Z" transform="translate(-19.50965 -0.70119)"/></g><g class="cls-5"><path class="cls-7" d="M255.17041,695.08329h-5.22852l-1.32128,3.7627h-1.72168l4.84668-13.14453h1.62109l4.84619,13.14453h-1.72168Zm-4.74609-1.39355H254.688l-2.10449-5.99414h-.05469Z" transform="translate(-19.50965 -0.70119)"/></g><g class="cls-5"><path class="cls-7" d="M276.06885,698.846H274.4292V685.70146h4.92822c2.53223,0,4.19043,1.54785,4.19043,3.917a3.75219,3.75219,0,0,1-2.64209,3.77051l3.04346,5.457h-1.92285l-2.81494-5.20117h-3.14258Zm0-6.65039h3.14258a2.34518,2.34518,0,0,0,2.64209-2.52246,2.40914,2.40914,0,0,0-2.71485-2.51465h-3.06982Z" transform="translate(-19.50965 -0.70119)"/></g><g class="cls-5"><path class="cls-7" d="M318.20117,692.26884c0-4.12695,2.32324-6.78613,5.92188-6.78613a5.22092,5.22092,0,0,1,5.457,4.36328h-1.6582a3.76126,3.76126,0,0,0-3.79883-2.85156c-2.56836,0-4.23633,2.07714-4.23633,5.27441,0,3.22461,1.64844,5.2832,4.24512,5.2832a3.62759,3.62759,0,0,0,3.79-2.53222h1.6582c-.60156,2.59668-2.55078,4.04492-5.457,4.04492C320.49707,699.06474,318.20117,696.43193,318.20117,692.26884Z" transform="translate(-19.50965 -0.70119)"/><path class="cls-7" d="M354.14746,698.846H346.168V685.70146h1.63867V697.3704h6.34082Z" transform="translate(-19.50965 -0.70119)"/></g><g class="cls-5"><path class="cls-7" d="M382.251,692.27763c0,4.17285-2.332,6.78711-6.05762,6.78711-3.72656,0-6.05859-2.61426-6.05859-6.78711,0-4.17188,2.332-6.79492,6.05859-6.79492C379.919,685.48271,382.251,688.10575,382.251,692.27763Zm-10.43067,0c0,3.23437,1.68555,5.27441,4.373,5.27441s4.37305-2.04,4.37305-5.27441c0-3.24219-1.68555-5.2832-4.37305-5.2832S371.82031,689.03544,371.82031,692.27763Z" transform="translate(-19.50965 -0.70119)"/></g><g class="cls-5"><path class="cls-7" d="M400.58789,694.12724a3.5836,3.5836,0,0,0,7.16016,0v-8.42578h1.63965v8.53515c0,2.80567-1.958,4.82813-5.21973,4.82813s-5.21973-2.02246-5.21973-4.82813v-8.53515h1.63965Z" transform="translate(-19.50965 -0.70119)"/></g><g class="cls-5"><path class="cls-7" d="M430.99414,685.70146c3.89844,0,6.20313,2.43164,6.20313,6.56738,0,4.14453-2.29493,6.57715-6.20313,6.57715h-4.418V685.70146Zm-2.77832,11.66894h2.66895c2.97851,0,4.63671-1.82226,4.63671-5.083,0-3.28906-1.64843-5.11035-4.63671-5.11035h-2.66895Z" transform="translate(-19.50965 -0.70119)"/></g></svg>