<svg xmlns="http://www.w3.org/2000/svg" viewBox="0 0 532.04 678.3"><defs><style>.cls-1{fill:#f3a93f;}.cls-2{fill:#a6a5a5;}.cls-3{fill:#15171d;}.cls-4{fill:#282d36;}.cls-5{fill:#fed66e;}.cls-6{fill:#fff;}.cls-7{fill:none;}</style></defs><title>Risorsa 4</title><g id="Livello_2" data-name="Livello 2"><g id="Livello_1-2" data-name="Livello 1"><path class="cls-1" d="M78.47,639.52a1.42,1.42,0,0,1,1.1.41,1.7,1.7,0,0,1,0,2.09,1.38,1.38,0,0,1-1.1.41H37.71a2.35,2.35,0,0,1-1.78-.72,2.48,2.48,0,0,1-.68-1.73V586.92a2.32,2.32,0,0,1,.68-1.68,2.44,2.44,0,0,1,1.78-.68H78.57a1.26,1.26,0,0,1,1,.41,1.45,1.45,0,0,1,0,1.91,1.42,1.42,0,0,1-1.1.41H38.25V612.4h38.4a1.33,1.33,0,0,1,1.46,1.37,1.33,1.33,0,0,1-1.46,1.36H38.25v24.39Z"/><path class="cls-1" d="M92.4,640.71V586.29a1.75,1.75,0,0,1,.45-1.28,1.5,1.5,0,0,1,1.09-.45A1.52,1.52,0,0,1,95,585a1.75,1.75,0,0,1,.45,1.28v53.32h38.22a1.54,1.54,0,0,1,1.14.41,1.32,1.32,0,0,1,.41,1,1.48,1.48,0,0,1-.41,1,1.45,1.45,0,0,1-1.14.45H94C92.94,642.43,92.4,641.86,92.4,640.71Z"/><path class="cls-1" d="M186.85,639.52a1.42,1.42,0,0,1,1.1.41,1.7,1.7,0,0,1,0,2.09,1.38,1.38,0,0,1-1.1.41H146.09a2.35,2.35,0,0,1-1.78-.72,2.48,2.48,0,0,1-.68-1.73V586.92a2.32,2.32,0,0,1,.68-1.68,2.44,2.44,0,0,1,1.78-.68h40.85a1.27,1.27,0,0,1,1,.41,1.45,1.45,0,0,1,0,1.91,1.42,1.42,0,0,1-1.1.41H146.63V612.4H185a1.33,1.33,0,0,1,1.46,1.37,1.33,1.33,0,0,1-1.46,1.36h-38.4v24.39Z"/><path class="cls-1" d="M255.56,584.56a1.38,1.38,0,0,1,1,.41,1.63,1.63,0,0,1,.41,1.23v54.6a1.61,1.61,0,0,1-.45,1.18,1.51,1.51,0,0,1-1.09.45,1.48,1.48,0,0,1-1.55-1.63V591.11L230.44,628a1.7,1.7,0,0,1-1.55,1,1.76,1.76,0,0,1-1.63-1l-23.48-36.67V640.8a1.5,1.5,0,0,1-1.55,1.63,1.5,1.5,0,0,1-1.09-.45,1.57,1.57,0,0,1-.46-1.18V586.2a1.54,1.54,0,0,1,.46-1.23,1.43,1.43,0,0,1,1-.41,1.65,1.65,0,0,1,1.46.91l25.29,39.4L254,585.47A1.84,1.84,0,0,1,255.56,584.56Z"/><path class="cls-1" d="M315.8,639.52a1.4,1.4,0,0,1,1.09.41,1.7,1.7,0,0,1,0,2.09,1.36,1.36,0,0,1-1.09.41H275a2.31,2.31,0,0,1-1.77-.72,2.45,2.45,0,0,1-.69-1.73V586.92a2.29,2.29,0,0,1,.69-1.68,2.4,2.4,0,0,1,1.77-.68h40.86a1.25,1.25,0,0,1,1,.41,1.37,1.37,0,0,1-1.09,2.32H275.58V612.4H314a1.4,1.4,0,0,1,1.09.41,1.42,1.42,0,0,1,.36,1,1.39,1.39,0,0,1-.36,1,1.36,1.36,0,0,1-1.09.41h-38.4v24.39Z"/><path class="cls-1" d="M372.67,585a1.56,1.56,0,0,1,2.19,0,1.75,1.75,0,0,1,.45,1.28v54.32a1.82,1.82,0,0,1-.41,1.28,1.25,1.25,0,0,1-.95.45,2.32,2.32,0,0,1-1.82-1l-39.59-51.23V640.8a1.66,1.66,0,0,1-.41,1.18,1.34,1.34,0,0,1-1,.45,1.48,1.48,0,0,1-1.55-1.63V586.47a2.17,2.17,0,0,1,.41-1.41,1.3,1.3,0,0,1,1.05-.5,2.09,2.09,0,0,1,1.72,1l39.5,51.23v-50.5A1.75,1.75,0,0,1,372.67,585Z"/><path class="cls-1" d="M434.28,584.56a1.63,1.63,0,0,1,1.23.41,1.31,1.31,0,0,1,.41.95,1.23,1.23,0,0,1-.46,1,1.71,1.71,0,0,1-1.18.41H410.71l.09,53.42a1.63,1.63,0,0,1-1.64,1.72,1.5,1.5,0,0,1-1.09-.45,1.73,1.73,0,0,1-.45-1.27V587.29H384.14a1.69,1.69,0,0,1-1.18-.41,1.23,1.23,0,0,1-.46-1,1.31,1.31,0,0,1,.41-.95,1.63,1.63,0,0,1,1.23-.41Z"/><path class="cls-1" d="M451.66,639.29A29.11,29.11,0,0,1,441,628.15a30.52,30.52,0,0,1-3.73-15.66q.27-9.74,4.55-16.19a26.61,26.61,0,0,1,10.69-9.56,30,30,0,0,1,13.15-3.09,31.09,31.09,0,0,1,13.61,3.27A28.58,28.58,0,0,1,490.61,597q4.54,6.78,4.55,16.52a29.71,29.71,0,0,1-4,15.19,29.28,29.28,0,0,1-10.6,10.74,28.3,28.3,0,0,1-28.94-.14Zm-7.73-12.19a26.61,26.61,0,0,0,9.5,9.83,24.74,24.74,0,0,0,25.67,0,26.71,26.71,0,0,0,9.51-9.83,27.25,27.25,0,0,0,3.55-13.7q0-9-4.1-15.06a25,25,0,0,0-10.24-8.91,28.4,28.4,0,0,0-12.15-2.87,26.67,26.67,0,0,0-12.05,2.87,23.18,23.18,0,0,0-9.51,8.91q-3.74,6.06-3.73,15.06A27.15,27.15,0,0,0,443.93,627.1Z"/><g id="Livello_4" data-name="Livello 4"><path class="cls-2" d="M120.58,662.46a.36.36,0,0,1,.27.1.43.43,0,0,1,.11.33v14.4a.41.41,0,0,1-.12.31.38.38,0,0,1-.29.12.4.4,0,0,1-.4-.43V664.18L114,673.9a.44.44,0,0,1-.4.27.47.47,0,0,1-.44-.27l-6.19-9.67v13.06a.41.41,0,0,1-.12.32.42.42,0,0,1-.29.11.38.38,0,0,1-.28-.12.41.41,0,0,1-.12-.31v-14.4a.43.43,0,0,1,.12-.33.37.37,0,0,1,.26-.1.42.42,0,0,1,.38.24l6.68,10.39,6.62-10.39A.49.49,0,0,1,120.58,662.46Z"/><path class="cls-2" d="M133.77,676.89A7.64,7.64,0,0,1,131,674a8.65,8.65,0,0,1,.22-8.4A7.08,7.08,0,0,1,134,663a7.94,7.94,0,0,1,3.47-.81,8.08,8.08,0,0,1,3.58.86,7.57,7.57,0,0,1,3,2.65,7.65,7.65,0,0,1,1.2,4.36,7.91,7.91,0,0,1-1,4,7.76,7.76,0,0,1-2.8,2.83,7.46,7.46,0,0,1-7.63,0Zm-2-3.21a7,7,0,0,0,2.51,2.59,6.41,6.41,0,0,0,3.37,1,6.51,6.51,0,0,0,3.4-1,7.22,7.22,0,0,0,3.44-6.21,6.94,6.94,0,0,0-1.08-4,6.6,6.6,0,0,0-2.7-2.35,7.6,7.6,0,0,0-3.2-.76,7.16,7.16,0,0,0-3.19.76,6.11,6.11,0,0,0-2.5,2.35,7.42,7.42,0,0,0-1,4A7.13,7.13,0,0,0,131.73,673.68Z"/><path class="cls-2" d="M154.46,677.72a.65.65,0,0,1-.46-.18.58.58,0,0,1-.19-.44v-14a.55.55,0,0,1,.19-.42.65.65,0,0,1,.46-.18H160a6.73,6.73,0,0,1,3.85,1.08,6.8,6.8,0,0,1,2.4,2.83,9,9,0,0,1,0,7.44,6.8,6.8,0,0,1-2.4,2.83,6.73,6.73,0,0,1-3.85,1.08ZM160,677a5.85,5.85,0,0,0,3.4-1,6,6,0,0,0,2.14-2.55,8.27,8.27,0,0,0,0-6.75,6.1,6.1,0,0,0-2.14-2.55,5.84,5.84,0,0,0-3.4-1H154.6V677Z"/><path class="cls-2" d="M189,662.86a.41.41,0,0,1,.12-.3.43.43,0,0,1,.29-.1.39.39,0,0,1,.26.1.38.38,0,0,1,.12.28v8.23a6.93,6.93,0,0,1-1,3.75,6.29,6.29,0,0,1-2.56,2.35,7.63,7.63,0,0,1-6.76,0,6.31,6.31,0,0,1-2.57-2.35,6.85,6.85,0,0,1-1-3.75v-8.23a.38.38,0,0,1,.12-.28.39.39,0,0,1,.27-.1.39.39,0,0,1,.26.1.41.41,0,0,1,.12.3v8.21a6,6,0,0,0,.87,3.31,5.48,5.48,0,0,0,2.28,2.07,6.87,6.87,0,0,0,6,0,5.6,5.6,0,0,0,2.28-2.07,6.11,6.11,0,0,0,.86-3.31Z"/><path class="cls-2" d="M199.64,677.26V662.91a.45.45,0,0,1,.12-.33.38.38,0,0,1,.29-.12.38.38,0,0,1,.28.12.45.45,0,0,1,.12.33V677h10.08a.4.4,0,0,1,.3.1.34.34,0,0,1,.11.26.36.36,0,0,1-.11.26.38.38,0,0,1-.3.12H200.07C199.78,677.72,199.64,677.57,199.64,677.26Z"/><path class="cls-2" d="M226.42,662.24l7.65,15a.41.41,0,0,1,.05.21.35.35,0,0,1-.12.28.44.44,0,0,1-.29.11.36.36,0,0,1-.33-.22l-2.14-4.25H220.92l-2.14,4.25a.32.32,0,0,1-.33.22.44.44,0,0,1-.29-.11.35.35,0,0,1-.12-.28.33.33,0,0,1,.05-.21l7.63-15a.4.4,0,0,1,.36-.22A.36.36,0,0,1,226.42,662.24Zm-5.14,10.46h9.57l-4.77-9.5Z"/><path class="cls-2" d="M243,677.31a.38.38,0,0,1-.12.3.44.44,0,0,1-.29.11.4.4,0,0,1-.27-.11.34.34,0,0,1-.12-.27V662.86a.41.41,0,0,1,.12-.3.43.43,0,0,1,.29-.1h6a7.58,7.58,0,0,1,3.35.67,4.84,4.84,0,0,1,2.07,1.8,4.64,4.64,0,0,1,.7,2.52,4.22,4.22,0,0,1-1.33,3.24,6.25,6.25,0,0,1-3.9,1.44l4.8,4.89a.47.47,0,0,1,.14.32.33.33,0,0,1-.11.27.34.34,0,0,1-.25.11.46.46,0,0,1-.29-.14l-5.23-5.48H243Zm5.68-5.9a6.16,6.16,0,0,0,3.95-1.08,3.42,3.42,0,0,0,1.33-2.79,4,4,0,0,0-.63-2.19,4.29,4.29,0,0,0-1.83-1.57,6.31,6.31,0,0,0-2.82-.58H243v8.21Z"/><path class="cls-2" d="M290.8,664.93a.77.77,0,0,1,.21.53.77.77,0,0,1-.27.56.89.89,0,0,1-.62.25.81.81,0,0,1-.55-.26,5.51,5.51,0,0,0-2-1.41,6.47,6.47,0,0,0-2.36-.42,7.7,7.7,0,0,0-2.88.57,5.21,5.21,0,0,0-2.37,1.92,6,6,0,0,0-1,3.56,6.36,6.36,0,0,0,.83,3.24,6.26,6.26,0,0,0,2.22,2.32,5.63,5.63,0,0,0,3,.85,6,6,0,0,0,2.63-.6,5.82,5.82,0,0,0,2.07-1.68.7.7,0,0,1,.6-.31,1,1,0,0,1,.63.24.73.73,0,0,1,.29.57.79.79,0,0,1-.15.46,6.61,6.61,0,0,1-2.66,2.17,8,8,0,0,1-3.46.81,7.34,7.34,0,0,1-3.81-1,7.71,7.71,0,0,1-2.85-2.9,8.19,8.19,0,0,1-1.07-4.14,7.24,7.24,0,0,1,1.24-4.3,7.44,7.44,0,0,1,3.05-2.54,8.59,8.59,0,0,1,3.59-.82A7.4,7.4,0,0,1,290.8,664.93Z"/><path class="cls-2" d="M300,677.17V663.63a.74.74,0,0,1,.26-.62.91.91,0,0,1,.62-.22,1,1,0,0,1,.63.22.76.76,0,0,1,.26.62v12.84h9a.94.94,0,0,1,.67.23.74.74,0,0,1,.24.56.77.77,0,0,1-.24.56.9.9,0,0,1-.67.24H301A.8.8,0,0,1,300,677.17Z"/><path class="cls-2" d="M321.94,677.31a7.17,7.17,0,0,1-2.79-2.83,8.68,8.68,0,0,1-1-4.32,7.15,7.15,0,0,1,4.1-6.78,8.14,8.14,0,0,1,3.48-.83,8.67,8.67,0,0,1,3.58.83,7.7,7.7,0,0,1,3.06,2.54,7.11,7.11,0,0,1,1.23,4.24,8.47,8.47,0,0,1-1.05,4.27,7.52,7.52,0,0,1-6.63,3.87A8,8,0,0,1,321.94,677.31Zm-1.24-3.69a5.55,5.55,0,0,0,2.15,2.25,5.92,5.92,0,0,0,3,.79,5.84,5.84,0,0,0,3-.78,5.68,5.68,0,0,0,2.14-2.23,7.14,7.14,0,0,0,.79-3.42,5.91,5.91,0,0,0-.95-3.42,5.62,5.62,0,0,0-2.34-2,6.53,6.53,0,0,0-2.76-.64,6.39,6.39,0,0,0-2.7.61,5.34,5.34,0,0,0-2.23,2,6.2,6.2,0,0,0-.9,3.48A7.12,7.12,0,0,0,320.7,673.62Z"/><path class="cls-2" d="M355.26,662.78a1,1,0,0,1,.65-.23.93.93,0,0,1,.62.23.78.78,0,0,1,.26.64v7.94a6.88,6.88,0,0,1-1,3.78,6.41,6.41,0,0,1-2.63,2.36,7.82,7.82,0,0,1-6.89,0,6.35,6.35,0,0,1-2.63-2.36,6.88,6.88,0,0,1-1-3.78v-8a.67.67,0,0,1,.26-.58,1,1,0,0,1,.62-.21,1,1,0,0,1,.65.22.71.71,0,0,1,.26.6v8a5.15,5.15,0,0,0,.75,2.83,4.73,4.73,0,0,0,2,1.78,5.83,5.83,0,0,0,5.15,0,4.79,4.79,0,0,0,2-1.78,5.15,5.15,0,0,0,.74-2.83v-7.92A.81.81,0,0,1,355.26,662.78Z"/><path class="cls-2" d="M366.65,677.74a.94.94,0,0,1-.33-.72V663.8a.93.93,0,0,1,.33-.71,1.09,1.09,0,0,1,.78-.3h5.23a6.87,6.87,0,0,1,3.9,1.08A6.79,6.79,0,0,1,379,666.7a8.85,8.85,0,0,1,0,7.44,6.76,6.76,0,0,1-2.43,2.84,6.87,6.87,0,0,1-3.9,1.08h-5.23A1.06,1.06,0,0,1,366.65,677.74Zm6-1.24a4.92,4.92,0,0,0,2.94-.87,5.38,5.38,0,0,0,1.83-2.25,7.27,7.27,0,0,0,0-5.92,5.37,5.37,0,0,0-1.83-2.27,5,5,0,0,0-2.94-.86h-4.61V676.5Z"/></g></g><g id="Livello_3" data-name="Livello 3"><polygon class="cls-3" points="265.59 0.17 31.67 129.79 31.67 389.05 265.59 518.68 265.59 0.17"/><polygon class="cls-4" points="265.59 0.17 500.37 129.79 500.37 389.05 265.59 518.68 265.59 0.17"/><polygon class="cls-1" points="265.59 0 31.67 111.92 31.67 142.8 265.59 53.34 265.59 0"/><polygon class="cls-1" points="265.59 470.55 31.67 381.1 31.67 410.07 265.59 521.99 265.59 470.55"/><polygon class="cls-1" points="265.59 238.13 31.67 248.35 31.67 275.55 265.59 285.76 265.59 238.13"/><polygon class="cls-5" points="265.59 0 500.37 111.92 500.37 142.8 265.59 53.34 265.59 0"/><polygon class="cls-5" points="265.59 470.55 500.37 381.1 500.37 410.07 265.59 521.99 265.59 470.55"/><polygon class="cls-5" points="265.59 238.13 500.37 248.35 500.37 275.55 265.59 285.76 265.59 238.13"/></g><g id="Livello_5" data-name="Livello 5"><path class="cls-6" d="M514.3,108.31a6.72,6.72,0,1,1-.9-3.35A6.61,6.61,0,0,1,514.3,108.31Zm-1.3,0a5.43,5.43,0,1,0-1.59,3.83A5.23,5.23,0,0,0,513,108.31Zm-8.46-3.58h3.21a2.88,2.88,0,0,1,2,.55,2,2,0,0,1,.15,2.72,2.77,2.77,0,0,1-1.47.76,2.21,2.21,0,0,1,.61.33,3.71,3.71,0,0,1,.57.73s.4.72,1.16,2.08h-2.11a17.1,17.1,0,0,0-1.38-2.45,1,1,0,0,0-.7-.4l-.22,0v2.82h-1.79Zm1.79,3h.77a1.86,1.86,0,0,0,1.09-.25.81.81,0,0,0,.32-.65.83.83,0,0,0-.31-.65,1.67,1.67,0,0,0-1-.25h-.84Z"/><rect class="cls-7" y="226.99" width="31.67" height="64.87"/><rect class="cls-7" x="500.37" y="229.51" width="31.67" height="64.87"/></g></g></svg>