<svg xmlns="http://www.w3.org/2000/svg" viewBox="0 0 468.69199 624.97259"><defs><style>.cls-1{fill:#f8a631;}.cls-2{fill:#a6a5a5;}.cls-3{fill:#13151c;}.cls-4{fill:#272d36;}.cls-5{fill:#ffd464;}</style></defs><title>MarkWeb</title><g id="Livello_1" data-name="Livello 1"><path class="cls-1" d="M110.09424,706.83984a1.38818,1.38818,0,0,1,1.0918.40918,1.68651,1.68651,0,0,1,0,2.09375,1.38818,1.38818,0,0,1-1.0918.40918H69.32617a2.31985,2.31985,0,0,1-1.77441-.72754,2.442,2.442,0,0,1-.68262-1.72949V654.24219a2.28815,2.28815,0,0,1,.68262-1.6836,2.39938,2.39938,0,0,1,1.77441-.68261h40.85889a1.27391,1.27391,0,0,1,1.001.40918,1.43553,1.43553,0,0,1,0,1.91113,1.38484,1.38484,0,0,1-1.0918.40918H69.87207v25.11621h38.40186a1.3697,1.3697,0,1,1,0,2.73047H69.87207v24.38769Z" transform="translate(-63.29401 -110.87702)"/><path class="cls-1" d="M124.0166,708.02344V653.60449a1.71826,1.71826,0,0,1,.45508-1.27344,1.53783,1.53783,0,0,1,2.18408,0,1.72412,1.72412,0,0,1,.45508,1.27344v53.32617h38.21973a1.53712,1.53712,0,0,1,1.13769.41016,1.30771,1.30771,0,0,1,.40967.95508,1.4636,1.4636,0,0,1-.40967,1.001,1.44861,1.44861,0,0,1-1.13769.45507H125.65479Q124.01636,709.752,124.0166,708.02344Z" transform="translate(-63.29401 -110.87702)"/><path class="cls-1" d="M218.47363,706.83984a1.38815,1.38815,0,0,1,1.0918.40918,1.68648,1.68648,0,0,1,0,2.09375,1.38815,1.38815,0,0,1-1.0918.40918H177.70557a2.31987,2.31987,0,0,1-1.77442-.72754,2.442,2.442,0,0,1-.68261-1.72949V654.24219a2.28814,2.28814,0,0,1,.68261-1.6836,2.39941,2.39941,0,0,1,1.77442-.68261h40.85888a1.27389,1.27389,0,0,1,1.001.40918,1.4355,1.4355,0,0,1,0,1.91113,1.38481,1.38481,0,0,1-1.0918.40918H178.25146v25.11621h38.40186a1.3697,1.3697,0,1,1,0,2.73047H178.25146v24.38769Z" transform="translate(-63.29401 -110.87702)"/><path class="cls-1" d="M287.17725,651.876a1.41812,1.41812,0,0,1,1.04589.40918,1.66771,1.66771,0,0,1,.41016,1.22851v54.60059a1.59931,1.59931,0,0,1-.45508,1.18262,1.4872,1.4872,0,0,1-1.09179.45507,1.48827,1.48827,0,0,1-1.54688-1.63769V658.42773L262.061,695.2832a1.69368,1.69368,0,0,1-1.54688,1.001,1.75722,1.75722,0,0,1-1.6377-1.001L235.398,658.61035v49.50391a1.48955,1.48955,0,0,1-1.54688,1.63769,1.48253,1.48253,0,0,1-1.09179-.45507,1.59173,1.59173,0,0,1-.45508-1.18262V653.51367a1.5654,1.5654,0,0,1,.45508-1.22851,1.46525,1.46525,0,0,1,1.001-.40918,1.64948,1.64948,0,0,1,1.45606.91015l25.29785,39.40235,25.11621-39.40235A1.85545,1.85545,0,0,1,287.17725,651.876Z" transform="translate(-63.29401 -110.87702)"/><path class="cls-1" d="M347.418,706.83984a1.38967,1.38967,0,0,1,1.09277.40918,1.69,1.69,0,0,1,0,2.09375,1.38967,1.38967,0,0,1-1.09277.40918H306.65039a2.31985,2.31985,0,0,1-1.77441-.72754,2.442,2.442,0,0,1-.68262-1.72949V654.24219a2.28815,2.28815,0,0,1,.68262-1.6836,2.39938,2.39938,0,0,1,1.77441-.68261h40.85938a1.27527,1.27527,0,0,1,1.001.40918,1.43839,1.43839,0,0,1,0,1.91113,1.38633,1.38633,0,0,1-1.09277.40918H307.19629v25.11621h38.40234a1.36966,1.36966,0,1,1,0,2.73047H307.19629v24.38769Z" transform="translate(-63.29401 -110.87702)"/><path class="cls-1" d="M404.293,652.33105a1.53724,1.53724,0,0,1,2.18359,0,1.72022,1.72022,0,0,1,.45508,1.27344v54.32715a1.83563,1.83563,0,0,1-.40918,1.27441,1.25,1.25,0,0,1-.95508.45508,2.34054,2.34054,0,0,1-1.82031-1.001l-39.585-51.2334v50.6875a1.69566,1.69566,0,0,1-.41016,1.18262,1.3399,1.3399,0,0,1-1.0459.45507,1.48955,1.48955,0,0,1-1.54687-1.63769V653.78711a2.18058,2.18058,0,0,1,.40918-1.41113,1.29674,1.29674,0,0,1,1.04687-.5,2.109,2.109,0,0,1,1.72852,1.001l39.49414,51.2334V653.60449A1.7163,1.7163,0,0,1,404.293,652.33105Z" transform="translate(-63.29401 -110.87702)"/><path class="cls-1" d="M465.89941,651.876a1.67,1.67,0,0,1,1.22852.40918,1.31,1.31,0,0,1,.41016.95605,1.25174,1.25174,0,0,1-.45508.95508,1.70262,1.70262,0,0,1-1.1836.40918H442.33105l.09083,53.418a1.63572,1.63572,0,0,1-1.6377,1.72851,1.48315,1.48315,0,0,1-1.09277-.45507,1.7187,1.7187,0,0,1-.45508-1.27344v-53.418H415.75879a1.6951,1.6951,0,0,1-1.18262-.40918,1.24851,1.24851,0,0,1-.45508-.95508,1.309,1.309,0,0,1,.40918-.95605,1.67158,1.67158,0,0,1,1.22852-.40918Z" transform="translate(-63.29401 -110.87702)"/><path class="cls-1" d="M483.28027,706.6123a29.15582,29.15582,0,0,1-10.64746-11.14746,30.48679,30.48679,0,0,1-3.73047-15.65234q.27246-9.73535,4.54981-16.19727a26.60786,26.60786,0,0,1,10.69238-9.55566,29.97132,29.97132,0,0,1,13.14942-3.09375,31.00726,31.00726,0,0,1,13.60449,3.27637,28.48875,28.48875,0,0,1,11.33008,10.05566q4.54833,6.77929,4.5498,16.51563a29.72645,29.72645,0,0,1-3.959,15.19726A29.26566,29.26566,0,0,1,512.21875,706.749a28.28469,28.28469,0,0,1-28.93848-.13672ZM475.54492,694.418a26.64375,26.64375,0,0,0,9.50977,9.82812,24.69674,24.69674,0,0,0,25.66211,0,26.65141,26.65141,0,0,0,9.50976-9.82812,27.19914,27.19914,0,0,0,3.54883-13.69531q0-9.00879-4.09473-15.06055a25.06974,25.06974,0,0,0-10.23828-8.918,28.55392,28.55392,0,0,0-12.14843-2.86621,26.8037,26.8037,0,0,0-12.05762,2.86621,23.27029,23.27029,0,0,0-9.50879,8.918q-3.73242,6.05274-3.73145,15.06055A27.19924,27.19924,0,0,0,475.54492,694.418Z" transform="translate(-63.29401 -110.87702)"/><g id="Livello_4" data-name="Livello 4"><path class="cls-2" d="M152.19824,720.00879a.37692.37692,0,0,1,.27637.10742.44072.44072,0,0,1,.1084.32422v14.40039a.4248.4248,0,0,1-.12012.31152.39556.39556,0,0,1-.28809.12012.39362.39362,0,0,1-.4082-.43164V721.73633l-6.19238,9.71972a.4451.4451,0,0,1-.40723.26465.46368.46368,0,0,1-.43261-.26465l-6.19141-9.67187v13.05664a.39362.39362,0,0,1-.4082.43164.39241.39241,0,0,1-.28809-.12012.42094.42094,0,0,1-.12012-.31152V720.44043a.41519.41519,0,0,1,.12012-.32422.38884.38884,0,0,1,.26367-.10742.4339.4339,0,0,1,.38379.23926l6.67285,10.39257,6.624-10.39257A.48792.48792,0,0,1,152.19824,720.00879Z" transform="translate(-63.29401 -110.87702)"/><path class="cls-2" d="M165.38867,734.44434a7.68367,7.68367,0,0,1-2.80762-2.93946,8.63823,8.63823,0,0,1,.21583-8.40039,7.02724,7.02724,0,0,1,2.82031-2.52051,7.91164,7.91164,0,0,1,3.46777-.81543,8.17863,8.17863,0,0,1,3.58789.86426,7.51837,7.51837,0,0,1,2.98828,2.65137,7.6408,7.6408,0,0,1,1.19922,4.35644,7.84034,7.84034,0,0,1-1.04394,4.00782,7.70938,7.70938,0,0,1-2.7959,2.832,7.4577,7.4577,0,0,1-7.63184-.03613Zm-2.04-3.21582a7.03023,7.03023,0,0,0,2.50782,2.59179,6.5133,6.5133,0,0,0,6.76855,0,7.0302,7.0302,0,0,0,2.50781-2.59179,7.17155,7.17155,0,0,0,.93555-3.61231,6.93118,6.93118,0,0,0-1.0791-3.97168,6.62549,6.62549,0,0,0-2.7002-2.35254,7.53467,7.53467,0,0,0-3.2041-.75586,7.07319,7.07319,0,0,0-3.18066.75586,6.15155,6.15155,0,0,0-2.50782,2.35254,7.439,7.439,0,0,0-.98339,3.97168A7.17165,7.17165,0,0,0,163.34863,731.22852Z" transform="translate(-63.29401 -110.87702)"/><path class="cls-2" d="M186.07715,735.27246a.64368.64368,0,0,1-.45606-.17969.5839.5839,0,0,1-.1914-.44433v-14.04a.55826.55826,0,0,1,.1914-.41992.64368.64368,0,0,1,.45606-.17969h5.56836a6.5857,6.5857,0,0,1,6.25195,3.91211,9.00966,9.00966,0,0,1,0,7.43945,6.5857,6.5857,0,0,1-6.25195,3.91211Zm5.56836-.74414a5.8815,5.8815,0,0,0,3.4082-.97168A6.11169,6.11169,0,0,0,197.18945,731a8.25686,8.25686,0,0,0,0-6.74316,6.11163,6.11163,0,0,0-2.13574-2.55664,5.88142,5.88142,0,0,0-3.4082-.97168h-5.42383v13.7998Z" transform="translate(-63.29401 -110.87702)"/><path class="cls-2" d="M220.61914,720.416a.38423.38423,0,0,1,.12012-.29981.41826.41826,0,0,1,.28808-.10742.38884.38884,0,0,1,.26368.10742.35532.35532,0,0,1,.12011.27637V728.624a6.933,6.933,0,0,1-.97168,3.74414,6.28085,6.28085,0,0,1-2.55566,2.35254,7.62665,7.62665,0,0,1-6.76856,0,6.35363,6.35363,0,0,1-2.56738-2.35254,6.87,6.87,0,0,1-.98437-3.74414v-8.23144a.35532.35532,0,0,1,.12011-.27637.38389.38389,0,0,1,.64746.29981v8.208a6.076,6.076,0,0,0,.86426,3.3125A5.5495,5.5495,0,0,0,211.47559,734a6.811,6.811,0,0,0,6,0,5.55552,5.55552,0,0,0,2.28027-2.06348,6.08411,6.08411,0,0,0,.86328-3.3125Z" transform="translate(-63.29401 -110.87702)"/><path class="cls-2" d="M231.25879,734.81641V720.46484a.45262.45262,0,0,1,.11914-.33593.40552.40552,0,0,1,.57617,0,.45308.45308,0,0,1,.12012.33593v14.06348H242.1543a.40312.40312,0,0,1,.2998.1084.3424.3424,0,0,1,.1084.252.38543.38543,0,0,1-.1084.26367.38142.38142,0,0,1-.2998.12012H231.69043Q231.2583,735.27246,231.25879,734.81641Z" transform="translate(-63.29401 -110.87702)"/><path class="cls-2" d="M258.03516,719.792l7.65625,15.04883a.39922.39922,0,0,1,.04785.21582.35185.35185,0,0,1-.12012.27539.41629.41629,0,0,1-.28809.1084.37116.37116,0,0,1-.33593-.21582l-2.13574-4.24805H252.53906l-2.13574,4.24805a.34126.34126,0,0,1-.33594.21582.41458.41458,0,0,1-.28808-.1084.35185.35185,0,0,1-.12012-.27539.39053.39053,0,0,1,.04785-.21582l7.63184-15.04883a.38873.38873,0,0,1,.36035-.21582A.34127.34127,0,0,1,258.03516,719.792Zm-5.13575,10.46485h9.5752l-4.77539-9.50391Z" transform="translate(-63.29401 -110.87702)"/><path class="cls-2" d="M274.61621,734.86426a.38.38,0,0,1-.12012.2998.41456.41456,0,0,1-.28808.1084.38543.38543,0,0,1-.26367-.1084.35185.35185,0,0,1-.12012-.27539V720.416a.38423.38423,0,0,1,.12012-.29981.41824.41824,0,0,1,.28808-.10742h6.04785a7.58927,7.58927,0,0,1,3.34766.67187,4.85627,4.85627,0,0,1,2.07617,1.79981A4.703,4.703,0,0,1,286.40039,725a4.236,4.236,0,0,1-1.332,3.24023,6.21634,6.21634,0,0,1-3.90039,1.44043l4.7998,4.89551a.43542.43542,0,0,1,.14453.3125.37005.37005,0,0,1-.10839.27539.34242.34242,0,0,1-.252.1084.41735.41735,0,0,1-.28808-.14355l-5.23145-5.47266h-5.61621Zm5.68848-5.90332a6.16285,6.16285,0,0,0,3.94726-1.08008,3.42146,3.42146,0,0,0,1.332-2.78418,4.00058,4.00058,0,0,0-.63574-2.19629,4.35893,4.35893,0,0,0-1.82422-1.57227,6.40723,6.40723,0,0,0-2.81933-.57519h-5.68848v8.208Z" transform="translate(-63.29401 -110.87702)"/><path class="cls-2" d="M322.415,722.48145a.77145.77145,0,0,1,.2168.52832.7519.7519,0,0,1-.27637.56347.888.888,0,0,1-.61231.252.781.781,0,0,1-.55175-.26368,5.59729,5.59729,0,0,0-2.01563-1.40429,6.45589,6.45589,0,0,0-2.35254-.41993,7.7255,7.7255,0,0,0-2.87988.56446,5.27339,5.27339,0,0,0-2.376,1.91992,6.04244,6.04244,0,0,0-.96,3.56348,6.46736,6.46736,0,0,0,.82813,3.24023,6.29781,6.29781,0,0,0,2.21972,2.31641,5.6899,5.6899,0,0,0,3.02442.85156,5.94944,5.94944,0,0,0,2.62793-.59961,5.81072,5.81072,0,0,0,2.07617-1.68066.6904.6904,0,0,1,.59961-.31153.95672.95672,0,0,1,.624.24024.72508.72508,0,0,1,.28809.57519.8092.8092,0,0,1-.14356.45606,6.61606,6.61606,0,0,1-2.66406,2.17187,8.01608,8.01608,0,0,1-3.45605.80469,7.40912,7.40912,0,0,1-3.81641-1.04395,7.80112,7.80112,0,0,1-2.84375-2.90429,8.16375,8.16375,0,0,1-1.06836-4.13965,7.19255,7.19255,0,0,1,1.23633-4.2959,7.5099,7.5099,0,0,1,3.04785-2.54492,8.69853,8.69853,0,0,1,3.58789-.81543A7.4058,7.4058,0,0,1,322.415,722.48145Z" transform="translate(-63.29401 -110.87702)"/><path class="cls-2" d="M331.65527,734.72168V721.18555a.759.759,0,0,1,.26368-.624,1.01005,1.01005,0,0,1,1.248,0,.75906.75906,0,0,1,.26367.624v12.83984h8.97657a.93916.93916,0,0,1,.67187.22754.74849.74849,0,0,1,.24024.56445.75655.75655,0,0,1-.24024.55176.90773.90773,0,0,1-.67187.24024h-9.83985A.79546.79546,0,0,1,331.65527,734.72168Z" transform="translate(-63.29401 -110.87702)"/><path class="cls-2" d="M353.56445,734.86523a7.15134,7.15134,0,0,1-2.7959-2.832,8.70953,8.70953,0,0,1-1.03222-4.32031,7.18219,7.18219,0,0,1,4.10449-6.7793,8.09454,8.09454,0,0,1,3.47949-.82812,8.61587,8.61587,0,0,1,3.57617.82812,7.61493,7.61493,0,0,1,3.06055,2.54395,7.06009,7.06009,0,0,1,1.23535,4.23535,8.45459,8.45459,0,0,1-1.05566,4.27246,7.51012,7.51012,0,0,1-6.624,3.86426A7.96237,7.96237,0,0,1,353.56445,734.86523Zm-1.248-3.69628a5.56427,5.56427,0,0,0,2.14843,2.25683,5.97842,5.97842,0,0,0,3.04786.792,5.8236,5.8236,0,0,0,2.97558-.78027,5.62714,5.62714,0,0,0,2.13672-2.23242,7.04083,7.04083,0,0,0,.792-3.41992,5.90081,5.90081,0,0,0-.94824-3.41993,5.69714,5.69714,0,0,0-2.33984-2.01562,6.60915,6.60915,0,0,0-2.76075-.63672,6.40549,6.40549,0,0,0-2.69921.61231,5.32726,5.32726,0,0,0-2.23243,1.98046,6.2161,6.2161,0,0,0-.89941,3.4795A7.09141,7.09141,0,0,0,352.31641,731.169Z" transform="translate(-63.29401 -110.87702)"/><path class="cls-2" d="M386.87891,720.333a.95807.95807,0,0,1,.64746-.22754.92584.92584,0,0,1,.624.22754.7973.7973,0,0,1,.26367.63672v7.94336a6.85428,6.85428,0,0,1-1.00781,3.78027,6.44124,6.44124,0,0,1-2.62793,2.36426,7.88353,7.88353,0,0,1-6.8877,0,6.44128,6.44128,0,0,1-2.62792-2.36426,6.8542,6.8542,0,0,1-1.00782-3.78027v-8.01563a.696.696,0,0,1,.26367-.58789,1.06768,1.06768,0,0,1,1.27149.01172.73216.73216,0,0,1,.26465.59961v7.99219a5.18473,5.18473,0,0,0,.74414,2.832,4.78853,4.78853,0,0,0,1.95605,1.77636,5.84865,5.84865,0,0,0,5.15918,0,4.79461,4.79461,0,0,0,1.95606-1.77636,5.18481,5.18481,0,0,0,.74414-2.832v-7.91993A.82317.82317,0,0,1,386.87891,720.333Z" transform="translate(-63.29401 -110.87702)"/><path class="cls-2" d="M398.26562,735.29785a.9736.9736,0,0,1-.32421-.7207V721.35352a.93512.93512,0,0,1,.32421-.708,1.1073,1.1073,0,0,1,.78028-.29981h5.23242a6.69091,6.69091,0,0,1,6.33594,3.91211,8.89182,8.89182,0,0,1,0,7.43946,6.796,6.796,0,0,1-2.43653,2.832,6.87007,6.87007,0,0,1-3.89941,1.08008H399.0459A1.08452,1.08452,0,0,1,398.26562,735.29785Zm6.0127-1.24805a4.93008,4.93008,0,0,0,2.93945-.86425,5.4629,5.4629,0,0,0,1.83594-2.25586,7.13414,7.13414,0,0,0,.624-2.95215,7.21467,7.21467,0,0,0-.624-2.96387,5.44466,5.44466,0,0,0-1.83594-2.26855,4.92957,4.92957,0,0,0-2.93945-.86328h-4.6084v12.168Z" transform="translate(-63.29401 -110.87702)"/></g></g><g id="Livello_3" data-name="Livello 3"><polygon class="cls-3" points="233.917 0.165 0 129.793 0 389.05 233.917 518.678 233.917 0.165"/><polygon class="cls-4" points="233.917 0.165 468.692 129.793 468.692 389.05 233.917 518.678 233.917 0.165"/><polygon class="cls-1" points="233.917 0 0 111.923 0 142.798 233.917 53.342 233.917 0"/><polygon class="cls-1" points="233.917 470.552 0 381.096 0 410.066 233.917 521.989 233.917 470.552"/><polygon class="cls-1" points="233.917 238.134 0 248.346 0 275.548 233.917 285.76 233.917 238.134"/><polygon class="cls-5" points="233.917 0 468.692 111.923 468.692 142.798 233.917 53.342 233.917 0"/><polygon class="cls-5" points="233.917 470.552 468.692 381.096 468.692 410.066 233.917 521.989 233.917 470.552"/><polygon class="cls-5" points="233.917 238.134 468.692 248.346 468.692 275.548 233.917 285.76 233.917 238.134"/></g></svg>