<svg xmlns="http://www.w3.org/2000/svg" viewBox="0 0 510 566.99997"><defs><style>.cls-1{fill:#333f51;}.cls-2{fill:#222a35;}.cls-3{fill:#07080b;}.cls-4{fill:#475971;}.cls-5{fill:#ffd55a;}.cls-6{fill:#ffa700;}</style></defs><title>elemento_client</title><g id="Sfondo"><path class="cls-1" d="M283.86709-.03542h.00034Q411.166,63.48231,538.46457,127V436Q411.166,501.48229,283.86743,566.96455h-.00034Z" transform="translate(-28.46457 0.03542)"/><path class="cls-2" d="M283.86709-.03542h-.0003L28.46457,127V437q127.70111,64.98227,255.40222,129.96454h.0003Z" transform="translate(-28.46457 0.03542)"/></g><g id="Nicchia"><path class="cls-1" d="M283.20718,476.31622h-.00024L98,404V163L283.20694,90.53412h.00024Z" transform="translate(-28.46457 0.03542)"/><path class="cls-2" d="M283.20718,476.31622h.00022Q376.10372,440.15812,469,404V163L283.2074,90.53412h-.00022Z" transform="translate(-28.46457 0.03542)"/><polyline class="cls-3" points="69.5 163.035 254.5 91.035 440.5 163.035 254.5 202.035 69.5 163.035"/><polyline class="cls-4" points="440.5 404.035 255.5 476.035 69.5 404.035 255.5 365.035 440.5 404.035"/></g><g id="Cubo_interno" data-name="Cubo interno"><path class="cls-5" d="M283.46457,133h.00018L430,181V386L283.46475,434h-.00018Z" transform="translate(-28.46457 0.03542)"/><path class="cls-6" d="M283.46457,133h-.00018L137,181V386l146.46439,48h.00018Z" transform="translate(-28.46457 0.03542)"/></g></svg>