<?xml version="1.0" encoding="utf-8"?>
<!-- Generator: Adobe Illustrator 23.0.2, SVG Export Plug-In . SVG Version: 6.00 Build 0)  -->
<svg version="1.1" xmlns="http://www.w3.org/2000/svg" xmlns:xlink="http://www.w3.org/1999/xlink" x="0px" y="0px"
	 viewBox="0 0 992.1 566.9" style="enable-background:new 0 0 992.1 566.9;" xml:space="preserve">
<style type="text/css">
	.st0{fill:#181D26;}
	.st1{fill-rule:evenodd;clip-rule:evenodd;fill:#181D26;}
	.st2{clip-path:url(#SVGID_2_);}
	.st3{clip-path:url(#SVGID_4_);}
	.st4{clip-path:url(#SVGID_8_);}
	.st5{clip-path:url(#SVGID_12_);}
	.st6{clip-path:url(#SVGID_14_);}
	.st7{clip-path:url(#SVGID_18_);}
	.st8{clip-path:url(#SVGID_20_);}
	.st9{clip-path:url(#SVGID_24_);}
	.st10{clip-path:url(#SVGID_28_);}
	.st11{clip-path:url(#SVGID_30_);}
	.st12{clip-path:url(#SVGID_34_);}
	.st13{clip-path:url(#SVGID_38_);}
	.st14{clip-path:url(#SVGID_40_);}
	.st15{clip-path:url(#SVGID_44_);}
	.st16{clip-path:url(#SVGID_48_);}
	.st17{clip-path:url(#SVGID_50_);}
	.st18{fill-rule:evenodd;clip-rule:evenodd;fill:#455060;}
	.st19{fill-rule:evenodd;clip-rule:evenodd;fill:#12161C;}
	.st20{fill-rule:evenodd;clip-rule:evenodd;fill:#323E4F;}
	.st21{fill-rule:evenodd;clip-rule:evenodd;fill:#212935;}
	.st22{fill:#212935;}
	.st23{fill:#323E4F;}
	.st24{fill:#4B0C9B;}
	.st25{fill:#7B14FF;}
	.st26{fill:#990000;}
	.st27{fill:#BA1E1E;}
</style>
<g id="Livello_1">
	<g>
		<rect x="292.1" y="102.6" class="st0" width="45.9" height="71.2"/>
		<rect x="363.5" y="66.9" class="st0" width="45.9" height="68.7"/>
		<rect x="582.7" y="66.9" class="st0" width="45.9" height="68.7"/>
		<rect x="654.1" y="102.4" class="st0" width="45.9" height="71.4"/>
		<polygon class="st1" points="465.5,384 439.7,300.5 241.1,348.4 249.7,421.1 		"/>
		<polygon class="st1" points="549.6,378.9 572.7,304.5 751,347.2 745.5,420.1 		"/>
		<polygon class="st1" points="506.3,192.5 475.9,258.1 241.1,220.5 253.6,139.5 		"/>
		<polygon class="st1" points="485.9,193.5 516.3,256.4 751,220.3 734.3,139.1 		"/>
		<rect x="292.1" y="390.7" class="st0" width="48.4" height="71.4"/>
		<rect x="363.5" y="428.8" class="st0" width="45.9" height="69"/>
		<rect x="582.7" y="429" class="st0" width="45.9" height="68.8"/>
		<rect x="654.1" y="390.5" class="st0" width="45.9" height="71.4"/>
		<polygon class="st0" points="494.8,8.1 723,122.2 723,439.6 494.8,553.7 266.6,439.6 266.6,122.2 		"/>
		<g>
			<defs>
				<polygon id="SVGID_1_" points="496.1,10.7 618.4,74.4 618.4,74.4 496.1,10.7 373.7,74.4 373.7,74.4 				"/>
			</defs>
			<clipPath id="SVGID_2_">
				<use xlink:href="#SVGID_1_"  style="overflow:visible;"/>
			</clipPath>
			<g class="st2">
				<g>
					<defs>
						<rect id="SVGID_3_" x="373.7" y="10.7" width="244.8" height="63.7"/>
					</defs>
					<clipPath id="SVGID_4_">
						<use xlink:href="#SVGID_3_"  style="overflow:visible;"/>
					</clipPath>
					<g class="st3">
						<defs>
							<rect id="SVGID_5_" x="373.7" y="10.7" width="244.8" height="63.7"/>
						</defs>
						<clipPath id="SVGID_6_">
							<use xlink:href="#SVGID_5_"  style="overflow:visible;"/>
						</clipPath>
						<g style="clip-path:url(#SVGID_6_);">
							
								<image style="overflow:visible;" width="1020" height="267" xlink:href="78C7C23688C40A15.jpg"  transform="matrix(0.24 0 0 0.24 373.68 10.56)">
							</image>
						</g>
					</g>
				</g>
			</g>
			<g class="st2">
				<g>
					<defs>
						<rect id="SVGID_7_" x="373.7" y="10.7" width="244.8" height="63.7"/>
					</defs>
					<clipPath id="SVGID_8_">
						<use xlink:href="#SVGID_7_"  style="overflow:visible;"/>
					</clipPath>
					<g class="st4">
						<defs>
							<rect id="SVGID_9_" x="373.7" y="10.7" width="244.8" height="63.7"/>
						</defs>
						<clipPath id="SVGID_10_">
							<use xlink:href="#SVGID_9_"  style="overflow:visible;"/>
						</clipPath>
						<g style="clip-path:url(#SVGID_10_);">
							
								<image style="overflow:visible;" width="1020" height="267" xlink:href="78C7C23688C40A17.jpg"  transform="matrix(0.24 0 0 0.24 373.68 10.56)">
							</image>
						</g>
					</g>
				</g>
			</g>
		</g>
		<g>
			<defs>
				<path id="SVGID_11_" d="M373.7,492.5l122.4,61.2L373.7,492.5z"/>
			</defs>
			<clipPath id="SVGID_12_">
				<use xlink:href="#SVGID_11_"  style="overflow:visible;"/>
			</clipPath>
			<g class="st5">
				<g>
					<defs>
						<rect id="SVGID_13_" x="373.7" y="492.5" width="122.4" height="61.2"/>
					</defs>
					<clipPath id="SVGID_14_">
						<use xlink:href="#SVGID_13_"  style="overflow:visible;"/>
					</clipPath>
					<g class="st6">
						<defs>
							<rect id="SVGID_15_" x="373.7" y="492.5" width="122.4" height="61.2"/>
						</defs>
						<clipPath id="SVGID_16_">
							<use xlink:href="#SVGID_15_"  style="overflow:visible;"/>
						</clipPath>
						<g transform="matrix(1 0 0 1 0 3.051758e-05)" style="clip-path:url(#SVGID_16_);">
							
								<image style="overflow:visible;" width="510" height="256" xlink:href="78C7C23688C40A12.jpg"  transform="matrix(0.24 0 0 0.24 373.68 492.48)">
							</image>
						</g>
					</g>
				</g>
			</g>
		</g>
		<g>
			<defs>
				<polygon id="SVGID_17_" points="618.4,492.5 618.4,492.5 496.1,553.7 				"/>
			</defs>
			<clipPath id="SVGID_18_">
				<use xlink:href="#SVGID_17_"  style="overflow:visible;"/>
			</clipPath>
			<g class="st7">
				<g>
					<defs>
						<rect id="SVGID_19_" x="496.1" y="492.5" width="122.4" height="61.2"/>
					</defs>
					<clipPath id="SVGID_20_">
						<use xlink:href="#SVGID_19_"  style="overflow:visible;"/>
					</clipPath>
					<g class="st8">
						<defs>
							<rect id="SVGID_21_" x="496.1" y="492.5" width="122.4" height="61.2"/>
						</defs>
						<clipPath id="SVGID_22_">
							<use xlink:href="#SVGID_21_"  style="overflow:visible;"/>
						</clipPath>
						<g transform="matrix(1 0 0 1 0 3.051758e-05)" style="clip-path:url(#SVGID_22_);">
							
								<image style="overflow:visible;" width="511" height="256" xlink:href="78C7C23688C40A13.jpg"  transform="matrix(0.24 0 0 0.24 495.84 492.48)">
							</image>
						</g>
					</g>
				</g>
			</g>
			<g class="st7">
				<g>
					<defs>
						<rect id="SVGID_23_" x="496.1" y="492.5" width="122.4" height="61.2"/>
					</defs>
					<clipPath id="SVGID_24_">
						<use xlink:href="#SVGID_23_"  style="overflow:visible;"/>
					</clipPath>
					<g class="st9">
						<defs>
							<rect id="SVGID_25_" x="496.1" y="492.5" width="122.4" height="61.2"/>
						</defs>
						<clipPath id="SVGID_26_">
							<use xlink:href="#SVGID_25_"  style="overflow:visible;"/>
						</clipPath>
						<g transform="matrix(1 0 0 1 0 3.051758e-05)" style="clip-path:url(#SVGID_26_);">
							
								<image style="overflow:visible;" width="511" height="256" xlink:href="78C7C23688C40A1D.jpg"  transform="matrix(0.24 0 0 0.24 495.84 492.48)">
							</image>
						</g>
					</g>
				</g>
			</g>
		</g>
		<g>
			<defs>
				<path id="SVGID_27_" d="M496.1,10.7l122.4,63.7L496.1,10.7z"/>
			</defs>
			<clipPath id="SVGID_28_">
				<use xlink:href="#SVGID_27_"  style="overflow:visible;"/>
			</clipPath>
			<g class="st10">
				<g>
					<defs>
						<rect id="SVGID_29_" x="496.1" y="10.7" width="122.4" height="63.7"/>
					</defs>
					<clipPath id="SVGID_30_">
						<use xlink:href="#SVGID_29_"  style="overflow:visible;"/>
					</clipPath>
					<g class="st11">
						<defs>
							<rect id="SVGID_31_" x="496.1" y="10.7" width="122.4" height="63.7"/>
						</defs>
						<clipPath id="SVGID_32_">
							<use xlink:href="#SVGID_31_"  style="overflow:visible;"/>
						</clipPath>
						<g style="clip-path:url(#SVGID_32_);">
							
								<image style="overflow:visible;" width="511" height="267" xlink:href="78C7C23688C40A1F.jpg"  transform="matrix(0.24 0 0 0.24 495.84 10.56)">
							</image>
						</g>
					</g>
				</g>
			</g>
			<g class="st10">
				<g>
					<defs>
						<rect id="SVGID_33_" x="496.1" y="10.7" width="122.4" height="63.7"/>
					</defs>
					<clipPath id="SVGID_34_">
						<use xlink:href="#SVGID_33_"  style="overflow:visible;"/>
					</clipPath>
					<g class="st12">
						<defs>
							<rect id="SVGID_35_" x="496.1" y="10.7" width="122.4" height="63.7"/>
						</defs>
						<clipPath id="SVGID_36_">
							<use xlink:href="#SVGID_35_"  style="overflow:visible;"/>
						</clipPath>
						<g style="clip-path:url(#SVGID_36_);">
							
								<image style="overflow:visible;" width="511" height="267" xlink:href="78C7C23688C40A10.jpg"  transform="matrix(0.24 0 0 0.24 495.84 10.56)">
							</image>
						</g>
					</g>
				</g>
			</g>
		</g>
		<g>
			<defs>
				<path id="SVGID_37_" d="M496.1,10.7L373.7,74.4L496.1,10.7z"/>
			</defs>
			<clipPath id="SVGID_38_">
				<use xlink:href="#SVGID_37_"  style="overflow:visible;"/>
			</clipPath>
			<g class="st13">
				<g>
					<defs>
						<rect id="SVGID_39_" x="373.7" y="10.7" width="122.4" height="63.7"/>
					</defs>
					<clipPath id="SVGID_40_">
						<use xlink:href="#SVGID_39_"  style="overflow:visible;"/>
					</clipPath>
					<g class="st14">
						<defs>
							<rect id="SVGID_41_" x="373.7" y="10.7" width="122.4" height="63.7"/>
						</defs>
						<clipPath id="SVGID_42_">
							<use xlink:href="#SVGID_41_"  style="overflow:visible;"/>
						</clipPath>
						<g style="clip-path:url(#SVGID_42_);">
							
								<image style="overflow:visible;" width="510" height="267" xlink:href="78C7C23688C40A11.jpg"  transform="matrix(0.24 0 0 0.24 373.68 10.56)">
							</image>
						</g>
					</g>
				</g>
			</g>
			<g class="st13">
				<g>
					<defs>
						<rect id="SVGID_43_" x="373.7" y="10.7" width="122.4" height="63.7"/>
					</defs>
					<clipPath id="SVGID_44_">
						<use xlink:href="#SVGID_43_"  style="overflow:visible;"/>
					</clipPath>
					<g class="st15">
						<defs>
							<rect id="SVGID_45_" x="373.7" y="10.7" width="122.4" height="63.7"/>
						</defs>
						<clipPath id="SVGID_46_">
							<use xlink:href="#SVGID_45_"  style="overflow:visible;"/>
						</clipPath>
						<g style="clip-path:url(#SVGID_46_);">
							
								<image style="overflow:visible;" width="510" height="267" xlink:href="78C7C23688C40A16.jpg"  transform="matrix(0.24 0 0 0.24 373.68 10.56)">
							</image>
						</g>
					</g>
				</g>
			</g>
		</g>
		<g>
			<defs>
				<polygon id="SVGID_47_" points="302.3,454.3 374.5,491.4 496.1,553.7 617.6,491.4 689.8,454.3 689.8,454.3 496.1,553.7 
					302.3,454.3 				"/>
			</defs>
			<clipPath id="SVGID_48_">
				<use xlink:href="#SVGID_47_"  style="overflow:visible;"/>
			</clipPath>
			<g class="st16">
				<g>
					<defs>
						<rect id="SVGID_49_" x="302.3" y="454.3" width="387.5" height="99.4"/>
					</defs>
					<clipPath id="SVGID_50_">
						<use xlink:href="#SVGID_49_"  style="overflow:visible;"/>
					</clipPath>
					<g class="st17">
						<defs>
							<rect id="SVGID_51_" x="302.3" y="454.3" width="387.5" height="99.4"/>
						</defs>
						<clipPath id="SVGID_52_">
							<use xlink:href="#SVGID_51_"  style="overflow:visible;"/>
						</clipPath>
						<g style="clip-path:url(#SVGID_52_);">
							
								<image style="overflow:visible;" width="1616" height="416" xlink:href="74DF11E1C455751E.jpg"  transform="matrix(0.24 0 0 0.24 302.16 454.08)">
							</image>
						</g>
					</g>
				</g>
			</g>
		</g>
		<polygon class="st18" points="373.7,375.1 494.3,364.5 618.4,375.1 496.1,400.7 		"/>
		<polygon class="st19" points="373.7,194 494.3,204.5 618.4,194 496.1,168.7 		"/>
		<polygon class="st20" points="628.6,66.9 692.4,99.1 692.4,209.5 628.6,196.7 628.6,66.9 		"/>
		<polygon class="st21" points="363.5,66.9 363.5,66.9 363.5,195.6 299.7,208.5 299.7,99.4 		"/>
		<polygon class="st20" points="700,102.6 751,127.8 751,220.5 700,210.5 		"/>
		<polygon class="st21" points="292.1,102.6 292.1,210.6 241.1,220.5 241.1,127.5 		"/>
		<polygon class="st20" points="628.6,204.4 692.4,217.1 692.4,352.4 628.6,365.1 		"/>
		<polygon class="st21" points="363.5,204.4 363.5,365.1 299.7,352.2 299.7,217.3 		"/>
		<polygon class="st20" points="700,218.5 751,228.4 751,341.5 700,351.5 		"/>
		<polygon class="st21" points="292.1,218.5 292.1,350.5 241.1,340.7 241.1,228.2 		"/>
		<polygon class="st20" points="751,347.5 751,436.9 700,462.1 700,357.4 		"/>
		<polygon class="st21" points="241.1,348.5 292.1,358.2 292.1,462.1 241.1,437.3 		"/>
		<polygon class="st21" points="299.7,360 363.5,372.8 363.5,497.8 299.7,465.4 		"/>
		<polygon class="st20" points="692.4,359.5 692.4,465.8 628.6,497.8 628.6,372.1 		"/>
		<polygon class="st22" points="373.7,194.2 496.1,169.6 496.1,169.6 496.1,0.5 373.7,62.9 		"/>
		<polygon class="st22" points="496.1,400 373.7,375.2 373.7,503.7 496.1,566.5 496.1,400 		"/>
		<polygon class="st23" points="618.4,194.2 496.1,169.6 496.1,169.6 496.1,0.5 618.4,62.9 		"/>
		<polygon class="st23" points="496.1,400 618.4,375.2 618.4,503.7 496.1,566.5 496.1,400 		"/>
	</g>
</g>
<g id="Livello_3">
	<g>
		<g>
			<polygon class="st24" points="198.1,177.7 198.1,177.7 75.7,202.2 75.7,364.7 198.1,389.3 198.1,389.3 			"/>
			<polygon class="st25" points="198.1,177.7 198.1,177.7 320.4,202.2 320.4,364.7 198.1,389.3 198.1,389.3 			"/>
		</g>
		<g>
			<polygon class="st26" points="672.1,177.7 672.1,177.7 549.7,202.2 549.7,364.7 672.1,389.3 672.1,389.3 			"/>
			<polygon class="st27" points="672.1,177.7 672.1,177.7 794.4,202.2 794.4,364.7 672.1,389.3 672.1,389.3 			"/>
		</g>
	</g>
</g>
<g id="Livello_4">
</g>
</svg>
